<svg id="Layer_1" enable-background="new 0 0 511.993 511.993" height="512" viewBox="0 0 511.993 511.993" width="512"
     xmlns="http://www.w3.org/2000/svg">
    <g>
        <g clip-rule="evenodd" fill-rule="evenodd">
            <path d="m172.31 338.455-13.309-25.089-18.214-34.336c-2.853-5.431-8.913-7.485-14.138-6.024-2.955.827-5.644 2.779-7.332 5.88l-32.927 60.51-66.308 11.625c-9.456 1.641-13.486 13.302-6.728 20.421l47.376 50.017-9.405 66.454c-1.467 9.808 8.533 17.034 17.241 12.908l62.298-29.644 59.976 29.324c8.606 4.675 19.17-2.334 17.874-12.277l-8.933-68.341 46.778-48.346c6.647-6.818 3.194-18.671-6.536-20.469l-42.041-7.832z"
                  fill="#D2B0FF"/>
            <path d="m140.787 279.029 31.522 59.426 25.672 4.782c58.202-110.759 162.815-182.211 304.011-199.839l-60.11-34.125 34.875-60.375-72.495 7.005-7.006-45.9c-123.576 33.112-225.446 130.2-270.607 263.002 5.225-1.461 11.285.593 14.138 6.024z"
                  fill="#D2B0FF"/>
        </g>
        <g>
            <path fill="#5C5072" opacity="0.3" d="m506.93 134.702-51.349-29.151 29.835-51.651c1.874-3.244 1.777-7.262-.249-10.412-2.027-3.15-5.646-4.904-9.372-4.543l-63.075 6.095-5.578-36.545c-.429-2.812-2.035-5.307-4.416-6.863-2.38-1.555-5.309-2.024-8.058-1.288-126.731 33.957-229.66 133.005-276.064 265.358-3.331 1.996-6.144 4.864-8.072 8.405l-30.621 56.273-61.54 10.789c-8.053 1.397-14.66 7.111-17.243 14.91-2.576 7.78-.671 16.305 4.964 22.241l44.06 46.515-8.718 61.599c-1.221 8.166 2.119 16.279 8.717 21.175 3.905 2.897 8.545 4.382 13.221 4.382 3.223 0 6.463-.706 9.491-2.14l57.942-27.571 55.477 27.125c7.304 3.864 16.064 3.354 22.924-1.353 6.895-4.731 10.506-12.824 9.424-21.123l-8.308-63.558 43.398-44.853c5.71-5.858 7.707-14.373 5.212-22.221-2.479-7.8-9.028-13.571-17.079-15.059l-28.461-5.302c58.979-103.22 158.909-166.269 289.838-182.615 4.277-.534 7.73-3.748 8.57-7.975s-1.122-8.517-4.87-10.644zm-267.058 227.652c.154.483.296 1.413-.5 2.23l-46.778 48.346c-2.12 2.19-3.124 5.228-2.729 8.25l8.933 68.337c.042.322.17 1.303-.908 2.043-.422.29-1.279.694-2.276.153-.125-.068-.252-.134-.381-.197l-59.976-29.324c-2.739-1.339-5.937-1.356-8.689-.046l-62.283 29.637c-.957.453-1.732.122-2.215-.236-.703-.521-.991-1.247-.844-2.233l9.405-66.453c.427-3.018-.545-6.065-2.641-8.278l-47.384-50.025c-.599-.63-.764-1.368-.491-2.191.157-.476.584-1.302 1.693-1.495l66.309-11.625c3.002-.526 5.6-2.393 7.057-5.07l32.926-60.508c.404-.743 1.041-1.119 1.891-1.119h.022c.608.004 1.435.204 1.94 1.167l31.523 59.426c1.428 2.692 4.006 4.586 7.002 5.145l67.726 12.617c.318.056 1.282.234 1.668 1.449zm73.847-162.548c-50.561 33.478-91.27 77.955-121.086 132.262l-13.749-2.561-8.713-16.425c32.217-68.487 79.108-127.187 132.432-165.64 4.479-3.23 5.492-9.481 2.262-13.96s-9.48-5.492-13.96-2.262c-52.519 37.872-98.996 94.217-132.321 160.019l-8.943-16.859c-2.164-4.121-5.52-7.361-9.523-9.402 44.003-118.683 135.891-208.093 248.965-242.249l5.293 34.683c.801 5.248 5.56 8.959 10.848 8.445l53.155-5.136-25.157 43.551c-1.333 2.308-1.69 5.052-.991 7.624s2.395 4.758 4.713 6.074l35.067 19.908c-59.349 10.822-112.484 31.597-158.292 61.928z"/>
            <path fill="#5C5072" opacity="0.3" d="m334.993 105.596h-.007c-5.523 0-9.996 4.477-9.996 10s4.48 10 10.003 10 10-4.477 10-10-4.477-10-10-10z"/>
        </g>
    </g>
</svg>