<?xml version="1.0" encoding="UTF-8" standalone="no"?>
<svg
   xmlns:dc="http://purl.org/dc/elements/1.1/"
   xmlns:cc="http://creativecommons.org/ns#"
   xmlns:rdf="http://www.w3.org/1999/02/22-rdf-syntax-ns#"
   xmlns:svg="http://www.w3.org/2000/svg"
   xmlns="http://www.w3.org/2000/svg"
   xmlns:sodipodi="http://sodipodi.sourceforge.net/DTD/sodipodi-0.dtd"
   xmlns:inkscape="http://www.inkscape.org/namespaces/inkscape"
   version="1.1"
   id="svg2"
   xml:space="preserve"
   width="7466.6665"
   height="2693.3333"
   viewBox="0 0 7466.6665 2693.3333"
   sodipodi:docname="6663.eps"><metadata
     id="metadata8"><rdf:RDF><cc:Work
         rdf:about=""><dc:format>image/svg+xml</dc:format><dc:type
           rdf:resource="http://purl.org/dc/dcmitype/StillImage" /></cc:Work></rdf:RDF></metadata><defs
     id="defs6"><clipPath
       clipPathUnits="userSpaceOnUse"
       id="clipPath154"><path
         d="m 42417.6,7968.6 c -0.1,0 -0.2,0 -0.3,0 0.1,0 0.2,0 0.3,0 m -0.5,0 h -0.1 0.1 m -0.1,0 c -0.1,0 -0.1,0 -0.1,0 0,0 0,0 0.1,0 m -0.4,0 v 0 0 m -0.2,0 c -0.1,0 -0.2,0 -0.3,0 0.1,0 0.2,0 0.3,0"
         id="path152" /></clipPath></defs><sodipodi:namedview
     pagecolor="#ffffff"
     bordercolor="#666666"
     borderopacity="1"
     objecttolerance="10"
     gridtolerance="10"
     guidetolerance="10"
     inkscape:pageopacity="0"
     inkscape:pageshadow="2"
     inkscape:window-width="640"
     inkscape:window-height="480"
     id="namedview4" /><g
     id="g10"
     inkscape:groupmode="layer"
     inkscape:label="ink_ext_XXXXXX"
     transform="matrix(1.3333333,0,0,-1.3333333,0,2693.3333)"><g
       id="g12"
       transform="scale(0.1)"><path
         d="M 0,0 H 56000 V 20200 H 0 Z"
         style="fill:#ffffff;fill-opacity:0;fill-rule:nonzero;stroke:none"
         id="path14" /><path
         d="m 3229.71,210.5 c 0,0 -3585.413,2148.4 -1723.75,8223.1 1861.66,6074.7 914.77,11685.8 10420.74,11451.9 9505.9,-233.9 10947.9,-3492.9 15964.7,-3479.9 5016.8,13 8866.7,353.3 13272.4,36.5 C 46679.9,16045.5 52735,12894.4 54252.5,8945.5 55769.9,4996.6 53725,280.602 53725,280.602 L 3229.71,210.5"
         style="fill:#e4f0ff;fill-opacity:0.8;fill-rule:nonzero;stroke:none"
         id="path16" /><path
         d="m 49284.9,6391.5 -57.2,-524 c 0,0 211,-26.4 303.3,-52.9 92.2,-26.4 353,488.4 353,488.4 0,0 -278.3,119.3 -291.5,119.3 -13.2,0 -307.6,-30.8 -307.6,-30.8"
         style="fill:#f9b5b2;fill-opacity:1;fill-rule:nonzero;stroke:none"
         id="path18" /><path
         d="M 52288.5,3967.9 52547.3,270 h -129.4 l -409.7,3657.9 280.3,40"
         style="fill:#07085b;fill-opacity:1;fill-rule:nonzero;stroke:none"
         id="path20" /><path
         d="M 49570.9,3967.9 49312.2,270 h 129.4 l 409.6,3657.9 -280.3,40"
         style="fill:#07085b;fill-opacity:1;fill-rule:nonzero;stroke:none"
         id="path22" /><path
         d="m 53417.7,7968.6 c 0,0 -2068.3,61.2 -2202.1,51.7 -133.9,-9.6 -257.6,-440 -257.6,-440 0,0 -604.2,-2241.4 -592.1,-2303 12,-61.7 -563.6,-1506 -563.6,-1506 0,0 496.5,13.2 518.5,0 22,-13.2 1920.3,162.9 1946.7,180.5 26.4,17.6 123,347.9 127.4,365.5 4.4,17.6 149.4,1303.5 149.4,1303.5 l 74.8,708.9 c 0,0 285.6,608.3 290,610.2 4.4,1.9 268,534.8 285.6,561.2 17.6,26.4 290.1,321.4 298.8,347.9 8.8,26.4 -75.8,119.6 -75.8,119.6"
         style="fill:#57ace5;fill-opacity:1;fill-rule:nonzero;stroke:none"
         id="path24" /><path
         d="m 53417.6,7968.6 c -0.1,0 -0.2,0 -0.3,0 0.1,0 0.2,0 0.3,0 m -0.5,0 h -0.1 0.1 m -0.1,0 h -0.1 0.1 m -0.4,0 v 0 0 m -0.2,0 c -0.1,0 -0.1,0 -0.3,0 0.1,0 0.2,0 0.3,0"
         style="fill:#b7d8f7;fill-opacity:1;fill-rule:nonzero;stroke:none"
         id="path26" /><path
         d="m 50374.8,3892.4 c 256.2,63.2 514.3,138.1 735,224.1 v -153.7 c -113.1,-12.3 -237.9,-25 -375.4,-38.1 -122,-11.5 -243,-22.3 -359.6,-32.3 m 916.7,90.9 v 210.9 c 224.8,106.3 385,226.9 420.5,361 l -20.8,22 c 27.8,-14.2 42.1,-22 42.1,-22 0.8,33 1.6,65.9 2.3,98.3 30,27.8 54.7,60.6 73.4,99.3 72.7,150.2 134.8,295.5 188.3,436.5 h 321.5 c -10.1,-120.1 -18.2,-234.1 -25.7,-339.8 -16.2,-228.6 -35.6,-502 -68.6,-633.7 -10.8,-42.9 -43.1,-77.1 -85.2,-90.3 -94.1,-29.4 -318.1,-79.7 -847.8,-142.2 m 1057.7,1523.1 h -243 c 141.1,457.8 200.8,871.5 256.5,1263.3 99.6,700.7 -34.6,1094.6 -273.9,1235.5 599.3,-15.1 1290.8,-35.5 1327.3,-36.6 0.2,0 0.2,0 0.3,0 0.1,0 0.1,0 0.2,0 v 0 c 0.1,0 0.2,0 0.3,0 h 0.1 v 0 h 0.1 c 0.1,0 0.1,0 0.2,0 0.1,0 0.2,0 0.3,0 h 0.1 c 0,0 1,-1.2 2.8,-3.2 -26,-2.4 -51.5,-12.7 -72.7,-31.3 -691.2,-609.1 -907.6,-1606 -998.6,-2427.7"
         style="fill:#469bde;fill-opacity:1;fill-rule:nonzero;stroke:none"
         id="path28" /><path
         d="m 49424.4,3692.3 v 0.1 c -4.4,70.7 48.9,131.7 119.4,136.5 221,15 699,49.2 1190.6,95.8 942.3,89.4 1282.9,162.6 1404.9,200.8 42.1,13.2 74.4,47.4 85.2,90.3 33,131.7 52.4,405.1 68.6,633.7 61.6,867.9 163.1,2298.9 1054.7,3084.6 55.6,49 141.3,40.2 186.5,-18.6 41.1,-53.6 34,-130.2 -16.7,-174.7 -812.3,-713.3 -905.6,-2028.6 -968,-2909.5 -35.6,-502.2 -57.6,-748.7 -167.3,-863.4 -52.9,-55.3 -151.4,-158.2 -1584.1,-295.9 -508.2,-48.8 -1008.6,-84.6 -1237,-100.1 -71.1,-4.9 -132.4,49.2 -136.8,120.4"
         style="fill:#026eaf;fill-opacity:1;fill-rule:nonzero;stroke:none"
         id="path30" /><path
         d="m 49486.3,5515.2 c 0,0 56.6,1990.4 161.6,2219.4 105.1,229 477,273 477,273 0,0 969.5,144 1221.4,-94.1 18.8,-17.8 457,-599.5 387,-3358.3 0,0 -832.5,458 -2247,692.8 v 267.2"
         style="fill:#02ccc0;fill-opacity:1;fill-rule:nonzero;stroke:none"
         id="path32" /><path
         d="m 36187.2,10876.2 h -3627 l 1665.9,3680.2 h 3627 l -1665.9,-3680.2"
         style="fill:#ecf5ff;fill-opacity:1;fill-rule:nonzero;stroke:none"
         id="path34" /><path
         d="m 40367.2,10876.2 h -3627 l 1665.9,3680.2 h 3627 l -1665.9,-3680.2"
         style="fill:#ecf5ff;fill-opacity:1;fill-rule:nonzero;stroke:none"
         id="path36" /><path
         d="m 34354.3,6827.2 h -3627 l 398.8,881 c 13.6,12.7 27.5,25.2 41.5,37.5 39.4,34.7 52.5,88.6 37.1,136 l 1188.6,2625.7 h 3627 l -1666,-3680.2"
         style="fill:#ecf5ff;fill-opacity:1;fill-rule:nonzero;stroke:none"
         id="path38" /><path
         d="m 38534.4,6827.2 h -3627 l 1665.9,3680.2 h 3627 l -398.8,-880.9 c -89.4,25.7 -177.8,37.7 -264.1,37.7 -161.1,0 -314.7,-41.8 -452.6,-114.3 -288.2,-151.6 -453.9,-312.5 -558,-718.5 -122.5,-477.4 -42.9,-823.9 -42.9,-1218.5 0,-305.9 99.7,-420.1 176,-486.1 -6.5,-19.5 -12.3,-39.5 -17.1,-60 l -108.4,-239.6"
         style="fill:#ecf5ff;fill-opacity:1;fill-rule:nonzero;stroke:none"
         id="path40" /><path
         d="m 26156.5,11230.1 h -470.2 v 1906 h 470.2 v -1906"
         style="fill:#142666;fill-opacity:1;fill-rule:nonzero;stroke:none"
         id="path42" /><path
         d="m 28382,11252.5 v 374.5 h 1902 v -374.5 h -1902"
         style="fill:#70c0fd;fill-opacity:1;fill-rule:nonzero;stroke:none"
         id="path44" /><path
         d="m 28635,11628.2 v 374.4 h 1902.1 v -374.4 H 28635"
         style="fill:#142666;fill-opacity:1;fill-rule:nonzero;stroke:none"
         id="path46" /><path
         d="m 28241.4,11994.5 v 374.4 h 1902 v -374.4 h -1902"
         style="fill:#ffffff;fill-opacity:1;fill-rule:nonzero;stroke:none"
         id="path48" /><path
         d="m 26700.2,11258.3 h -480.8 v 2645.6 h 480.8 v -2645.6"
         style="fill:#ffffff;fill-opacity:1;fill-rule:nonzero;stroke:none"
         id="path50" /><path
         d="m 25630.5,11258.3 h -442.8 v 2354 h 442.8 v -2354"
         style="fill:#70c0fd;fill-opacity:1;fill-rule:nonzero;stroke:none"
         id="path52" /><path
         d="m 28129,11474.9 -397.9,-194.7 -1030.6,2115.4 398,194.7 1030.5,-2115.4"
         style="fill:#70c0fd;fill-opacity:1;fill-rule:nonzero;stroke:none"
         id="path54" /><path
         d="m 32441.7,11056.3 h -7605.5 v 215.3 h 7605.5 v -215.3"
         style="fill:#4188e4;fill-opacity:1;fill-rule:nonzero;stroke:none"
         id="path56" /><path
         d="m 43411,11071.5 h -417.6 v 1692.9 h 417.6 v -1692.9"
         style="fill:#142666;fill-opacity:1;fill-rule:nonzero;stroke:none"
         id="path58" /><path
         d="m 44045,11091.4 h 1689.4 v 332.582 H 44045 Z"
         style="fill:#ffffff;fill-opacity:1;fill-rule:nonzero;stroke:none"
         id="path60" /><path
         d="m 44269.8,11425.1 h 1689.4 v 332.582 h -1689.4 z"
         style="fill:#87c2f7;fill-opacity:1;fill-rule:nonzero;stroke:none"
         id="path62" /><path
         d="m 44045,11750.4 v 332.6 h 1689.4 v -332.6 H 44045"
         style="fill:#142666;fill-opacity:1;fill-rule:nonzero;stroke:none"
         id="path64" /><path
         d="m 43466.9,11096.5 h 427.004 v 2349.84 H 43466.9 Z"
         style="fill:#70c0fd;fill-opacity:1;fill-rule:nonzero;stroke:none"
         id="path66" /><path
         d="m 42943.8,11096.5 h -393.3 v 2090.8 h 393.3 v -2090.8"
         style="fill:#ffffff;fill-opacity:1;fill-rule:nonzero;stroke:none"
         id="path68" /><path
         d="m 47108.4,11071.5 h -417.6 v 1692.9 h 417.6 v -1692.9"
         style="fill:#142666;fill-opacity:1;fill-rule:nonzero;stroke:none"
         id="path70" /><path
         d="m 47591.3,11096.5 h -427 v 2349.8 h 427 v -2349.8"
         style="fill:#70c0fd;fill-opacity:1;fill-rule:nonzero;stroke:none"
         id="path72" /><path
         d="m 46641.2,11096.5 h -393.3 v 2090.8 h 393.3 v -2090.8"
         style="fill:#ffffff;fill-opacity:1;fill-rule:nonzero;stroke:none"
         id="path74" /><path
         d="m 48860.4,11288.9 -353.5,-172.9 -915.3,1878.9 353.4,172.9 915.4,-1878.9"
         style="fill:#ffffff;fill-opacity:1;fill-rule:nonzero;stroke:none"
         id="path76" /><path
         d="m 48993.5,10917.1 h -6755.2 v 191.2 h 6755.2 v -191.2"
         style="fill:#4188e4;fill-opacity:1;fill-rule:nonzero;stroke:none"
         id="path78" /><path
         d="m 48876.7,260.102 1008.4,467.199 c 14.8,6.902 21.3,24.597 14.4,39.5 l -25.8,55.898 c -6.8,14.903 -24.5,21.403 -39.3,14.5 L 48826,370 c -14.9,-6.898 -21.4,-24.598 -14.5,-39.5 l 25.8,-55.898 c 6.9,-14.903 24.5,-21.403 39.4,-14.5"
         style="fill:#ffffff;fill-opacity:1;fill-rule:nonzero;stroke:none"
         id="path80" /><path
         d="m 49658.6,1160.9 176.2,-289.298 c 21.7,-35.602 17,-79.301 -9.9,-91.801 l -936.1,-433.699 c -24.3,-11.301 -55.5,-6.801 -81.8,16.597 -27,24.004 -50.5,68.102 -36.7,148.403 27.1,157.699 279.9,312.199 371.2,475.199 3.2,5.801 8,10.5 14,13.301 l 426.8,197.698 c 24.4,11.3 56.7,-4.1 76.3,-36.4"
         style="fill:#02ccc0;fill-opacity:1;fill-rule:nonzero;stroke:none"
         id="path82" /><path
         d="m 49294.4,848.5 v 0 c 4.8,7.402 1.8,20.301 -6.2,27.402 -37.7,33.301 -142.2,108.598 -249.4,33.496 -6.2,-4.296 -6.5,-15.597 -1,-24.597 l 0.2,-0.301 c 5.4,-8.699 14.2,-11.898 20.2,-7.699 96.3,66.898 186.6,-0.301 217.7,-28.5 6.6,-6.102 14.5,-6 18.5,0.199"
         style="fill:#ffffff;fill-opacity:1;fill-rule:nonzero;stroke:none"
         id="path84" /><path
         d="m 49215.3,764.102 v 0 c 4.8,7.398 1.9,20.296 -6.2,27.398 -37.6,33.301 -142.1,108.699 -249.4,33.602 -6.2,-4.403 -6.5,-15.704 -0.9,-24.7 l 0.1,-0.3 c 5.4,-8.7 14.3,-11.903 20.3,-7.7 96.2,66.899 186.5,-0.3 217.6,-28.5 6.6,-6 14.5,-5.902 18.5,0.2"
         style="fill:#ffffff;fill-opacity:1;fill-rule:nonzero;stroke:none"
         id="path86" /><path
         d="m 49141.8,685.5 v 0 c 4.8,7.402 1.9,20.301 -6.1,27.402 -37.7,33.297 -142.2,108.7 -249.4,33.598 -6.2,-4.398 -6.6,-15.699 -1,-24.699 l 0.2,-0.301 c 5.3,-8.699 14.2,-11.898 20.2,-7.699 96.3,66.898 186.6,-0.301 217.6,-28.5 6.6,-6 14.5,-5.903 18.5,0.199"
         style="fill:#ffffff;fill-opacity:1;fill-rule:nonzero;stroke:none"
         id="path88" /><path
         d="m 49847.1,839.902 v 0 c -1.8,9.496 -5.2,19.2 -10.3,28.399 5.1,-9.199 8.5,-18.903 10.3,-28.399"
         style="fill:#decbca;fill-opacity:1;fill-rule:nonzero;stroke:none"
         id="path90" /><path
         d="m 49834.8,871.602 -98.6,161.898 c 0.1,-0.1 0.3,-0.3 0.4,-0.5 l 98.2,-161.398"
         style="fill:#decbca;fill-opacity:1;fill-rule:nonzero;stroke:none"
         id="path92" /><path
         d="m 49602.4,679.902 c -16.2,0 -31.2,12.797 -32.8,30.899 -18.9,213.301 59.4,299.699 124.8,334.699 4.5,2.4 9.3,3.6 14.2,3.6 10.7,0 21.4,-5.7 27.6,-15.6 l 98.6,-161.898 c 0.7,-1.102 1.4,-2.204 2,-3.301 5.1,-9.199 8.5,-18.903 10.3,-28.399 0.2,-1.101 0.4,-2.3 0.6,-3.402 3.6,-25.199 -4.4,-48.199 -22.8,-56.699 l -209.3,-97 c -4.4,-2 -8.8,-2.899 -13.2,-2.899"
         style="fill:#02ac98;fill-opacity:1;fill-rule:nonzero;stroke:none"
         id="path94" /><path
         d="m 47119.7,238.5 1071,295.898 c 15.8,4.403 25,20.704 20.7,36.602 l -16.4,59.402 c -4.3,15.797 -20.6,25.098 -36.5,20.7 L 47087.6,355.301 c -15.8,-4.399 -25.1,-20.801 -20.8,-36.602 l 16.4,-59.398 c 4.3,-15.801 20.7,-25.098 36.5,-20.801"
         style="fill:#ffffff;fill-opacity:1;fill-rule:nonzero;stroke:none"
         id="path96" /><path
         d="m 48038,999.301 126.6,-314.199 c 15.7,-38.801 3.9,-81.2 -24.7,-89.102 l -994.2,-274.598 c -25.8,-7.101 -55.9,2.399 -78.1,29.797 -22.6,28.102 -38.7,75.403 -11.9,152.403 52.4,151.097 327,262.097 443.6,408 4.1,5.296 9.7,9.097 16,10.8 l 453.3,125.298 c 25.9,7.1 55.2,-13.4 69.4,-48.399"
         style="fill:#02ccc0;fill-opacity:1;fill-rule:nonzero;stroke:none"
         id="path98" /><path
         d="m 47627.7,750.699 v 0 c 5.9,6.5 5.1,19.703 -1.7,28 -31.7,39.102 -122.5,130.504 -240.5,73.903 -6.8,-3.204 -9,-14.403 -5,-24.102 l 0.1,-0.301 c 3.9,-9.5 12.1,-14.097 18.7,-11 105.9,50.301 184,-30.797 210.1,-63.699 5.5,-7 13.3,-8.199 18.3,-2.801"
         style="fill:#ffffff;fill-opacity:1;fill-rule:nonzero;stroke:none"
         id="path100" /><path
         d="m 47535.9,680.402 v 0 c 6,6.496 5.1,19.7 -1.6,28 -31.7,39.098 -122.6,130.5 -240.6,73.899 -6.8,-3.199 -9,-14.399 -5,-24.102 l 0.2,-0.297 c 3.8,-9.5 12.1,-14.101 18.7,-11.004 105.9,50.301 184,-30.796 210,-63.699 5.6,-7 13.4,-8.199 18.3,-2.797"
         style="fill:#ffffff;fill-opacity:1;fill-rule:nonzero;stroke:none"
         id="path102" /><path
         d="m 47450.6,614.902 v 0 c 6,6.5 5.2,19.7 -1.6,28 -31.7,39.098 -122.5,130.5 -240.6,73.899 -6.8,-3.199 -9,-14.399 -5,-24.102 l 0.2,-0.297 c 3.8,-9.5 12,-14.101 18.7,-11 105.8,50.301 184,-30.8 210,-63.703 5.6,-7.097 13.4,-8.301 18.3,-2.797"
         style="fill:#ffffff;fill-opacity:1;fill-rule:nonzero;stroke:none"
         id="path104" /><path
         d="M 47917.4,534.602 48139.9,596 c 19.9,5.5 31.6,27.699 31.7,53.699 -0.1,-26 -11.8,-48.199 -31.7,-53.699 l -222.4,-61.398 c 0,0 0,0 -0.1,0"
         style="fill:#f8d7ca;fill-opacity:1;fill-rule:nonzero;stroke:none"
         id="path106" /><path
         d="m 47909.1,533.5 c -18.3,0 -33.8,16.301 -32.3,36.301 16.1,213.5 107.4,285.898 177.6,309.801 3.2,1.097 6.4,1.597 9.6,1.597 12.8,0 24.9,-8.097 30,-20.898 l 70.6,-175.199 c 4.8,-11.903 7,-24 7,-35.403 -0.1,-26 -11.8,-48.199 -31.7,-53.699 l -222.5,-61.398 c -2.8,-0.801 -5.5,-1.102 -8.3,-1.102"
         style="fill:#02ac98;fill-opacity:1;fill-rule:nonzero;stroke:none"
         id="path108" /><path
         d="m 49712.2,6303 c 18.1,158 34.1,302.8 34.1,321.9 0,44 -119.6,1109.7 -119.6,1109.7 0,0 -294.5,-643 -364.6,-1365.1 89.5,-45.1 235.7,-91 450.1,-66.5"
         style="fill:#00aa99;fill-opacity:1;fill-rule:nonzero;stroke:none"
         id="path110" /><path
         d="m 49647.3,5874.7 14,-7.2 c 0,0 1.3,10.9 3.6,29.9 -5.9,-7.7 -11.8,-15.3 -17.6,-22.7"
         style="fill:#f4a640;fill-opacity:1;fill-rule:nonzero;stroke:none"
         id="path112" /><path
         d="m 49661.3,5248 c 0,0 -2414,-270 -2542.9,-1092 -128.9,-822 380.9,-3244.297 380.9,-3244.297 0,0 404.2,26.699 556.6,120.697 0,0 -152.4,2700.8 70.3,2877 222.7,176.1 1441.4,598.9 1464.8,645.8 23.4,47 70.3,692.8 70.3,692.8"
         style="fill:#202121;fill-opacity:1;fill-rule:nonzero;stroke:none"
         id="path114" /><path
         d="m 49661.3,5248 c 0,0 -1605.4,-880.7 -1605.4,-1397.3 0,-516.7 621.1,-2442.6 1078.1,-2865.298 0,0 281.2,46.998 527.3,176.098 L 49110.5,3651 c 0,0 2449.2,328.8 2601.5,904.2 l -602.2,634.1 -1448.5,58.7"
         style="fill:#333333;fill-opacity:1;fill-rule:nonzero;stroke:none"
         id="path116" /><path
         d="m 44393.9,275 h -181.6 v 4973 h 181.6 V 275"
         style="fill:#183658;fill-opacity:1;fill-rule:nonzero;stroke:none"
         id="path118" /><path
         d="m 46107.7,275 h -181.6 v 4973 h 181.6 V 275"
         style="fill:#183658;fill-opacity:1;fill-rule:nonzero;stroke:none"
         id="path120" /><path
         d="m 51109.8,275 h 181.699 V 5248 H 51109.8 Z"
         style="fill:#183658;fill-opacity:1;fill-rule:nonzero;stroke:none"
         id="path122" /><path
         d="m 52823.6,275 h 181.699 V 5248 H 52823.6 Z"
         style="fill:#183658;fill-opacity:1;fill-rule:nonzero;stroke:none"
         id="path124" /><path
         d="M 53436.7,5189.3 H 43806 c -44.2,0 -80.1,35.9 -80.1,80 v 157.1 c 0,44.2 35.9,80 80.1,80 h 9630.7 c 44.2,0 80,-35.8 80,-80 v -157.1 c 0,-44.1 -35.8,-80 -80,-80"
         style="fill:#fee4cb;fill-opacity:1;fill-rule:nonzero;stroke:none"
         id="path126" /><path
         d="m 50657.4,8402.9 v -497 c 0,-27.6 -15.8,-52.8 -40.7,-64.5 -75.9,-35.6 -245.4,-94 -403.7,-1 -21.4,12.6 -34,36.1 -34,60.9 v 449 l 478.4,52.6"
         style="fill:#ffc0bb;fill-opacity:1;fill-rule:nonzero;stroke:none"
         id="path128" /><path
         d="m 50657.4,8136.7 v 266.2 l -478.4,-52.6 v -225.9 c 89.7,-27.2 256.8,-54.4 478.4,12.3"
         style="fill:#f99893;fill-opacity:1;fill-rule:nonzero;stroke:none"
         id="path130" /><path
         d="m 49873.5,8937.7 c 25.9,-78.8 -4.1,-159.5 -67,-180.3 -62.9,-20.7 -134.9,26.3 -160.8,105.1 -25.9,78.8 4.1,159.5 67,180.2 62.9,20.8 134.9,-26.2 160.8,-105"
         style="fill:#f99893;fill-opacity:1;fill-rule:nonzero;stroke:none"
         id="path132" /><path
         d="m 49864.6,8487.8 c -16.7,34.4 -30.4,70.6 -40.8,108.2 -29.8,101.1 -41.1,207 -43.7,298.9 -0.6,19.8 -2.2,39.4 -4.3,59 -8.3,79.2 -2.3,162.2 21.9,246.3 77.9,270.6 328.7,461.1 609.7,462.6 378.5,2 669.4,-317.4 644.2,-685.7 41.4,19.5 86.7,21.5 125,1.1 73.4,-39.2 93.4,-145.5 44.6,-237.6 -48.9,-92 -148.1,-134.9 -221.6,-95.7 -10.2,5.4 -19.2,12.3 -27.3,20.1 -53.4,-311.3 -326.3,-535.5 -633.4,-509.2 -150.1,12.8 -282,83.4 -377.7,189.1 -6.5,6.2 -13.2,13.4 -20.2,21.8 -30.8,36.6 -55.8,77.7 -76.4,121.1"
         style="fill:#ffc0bb;fill-opacity:1;fill-rule:nonzero;stroke:none"
         id="path134" /><path
         d="m 50474.1,8961.1 c -2.6,-30.8 20.2,-57.9 50.9,-60.6 30.8,-2.6 57.9,20.2 60.5,51.1 2.6,30.8 -20.2,57.9 -51,60.5 -30.7,2.7 -57.8,-20.2 -60.4,-51"
         style="fill:#333333;fill-opacity:1;fill-rule:nonzero;stroke:none"
         id="path136" /><path
         d="m 49993.1,8970.6 c -2.6,-30.8 20.2,-57.9 51,-60.5 30.7,-2.7 57.8,20.2 60.4,51 2.7,30.8 -20.1,58 -50.9,60.6 -30.8,2.6 -57.8,-20.2 -60.5,-51.1"
         style="fill:#333333;fill-opacity:1;fill-rule:nonzero;stroke:none"
         id="path138" /><path
         d="m 50416.3,9077.5 c 28.3,8.9 55.1,15.7 81.7,19.6 26.6,3.9 52.8,4.3 78.2,0.8 25.3,-3.8 50.7,-9.8 74.8,-21.6 l 9.4,-3.8 c 3.1,-1.3 5.9,-3.3 9,-4.8 l 18.4,-9.6 c 12.3,-6.7 23.7,-15.1 37.4,-21.7 -7,12.8 -15.2,25.5 -24.7,37.1 -10.6,10.3 -20.3,22.6 -33.4,30.6 -24.3,18.8 -54.8,29.9 -85.6,34.3 -31.1,4.2 -63,0.3 -91.5,-10.4 -28.4,-10.9 -54.7,-27.3 -73.7,-50.5"
         style="fill:#333333;fill-opacity:1;fill-rule:nonzero;stroke:none"
         id="path140" /><path
         d="M 41288.5,3967.9 41547.3,270 h -129.4 l -409.7,3657.9 280.3,40"
         style="fill:#07085b;fill-opacity:1;fill-rule:nonzero;stroke:none"
         id="path142" /><path
         d="M 38570.9,3967.9 38312.2,270 h 129.4 l 409.6,3657.9 -280.3,40"
         style="fill:#07085b;fill-opacity:1;fill-rule:nonzero;stroke:none"
         id="path144" /><path
         d="m 42417.7,7968.6 c 0,0 -2068.3,61.2 -2202.1,51.7 -133.9,-9.6 -257.6,-440 -257.6,-440 0,0 -604.2,-2241.4 -592.1,-2303 12,-61.7 -563.7,-1506 -563.7,-1506 0,0 496.6,13.2 518.6,0 22,-13.2 1920.3,162.9 1946.7,180.5 26.4,17.6 123,347.9 127.4,365.5 4.4,17.6 149.5,1303.5 149.5,1303.5 l 74.7,708.9 c 0,0 285.6,608.3 290,610.2 4.4,1.9 268.1,534.8 285.6,561.2 17.6,26.4 290,321.4 298.8,347.9 8.8,26.4 -75.8,119.6 -75.8,119.6"
         style="fill:#57ace5;fill-opacity:1;fill-rule:nonzero;stroke:none"
         id="path146" /><g
         id="g148"><g
           id="g150"
           clip-path="url(#clipPath154)"><path
             d="m 42416.1,7968.6 h 1.5 v 0 z"
             style="fill:#b7d8f7;fill-opacity:1;fill-rule:nonzero;stroke:none"
             id="path156" /></g></g><path
         d="m 39750.9,3926.3 c 108.9,19.7 213.7,39.2 311.6,57.9 v -26.5 c -95.6,-10.2 -199.3,-20.7 -311.6,-31.4 m 493.3,51.5 v 42.3 c 259.5,63.8 439,284.5 466,530.8 2.4,-1.1 3.6,-1.7 3.6,-1.7 0.7,29.3 1.4,58.6 2,87.3 39,31.2 70.5,69.4 93.2,116.3 72.7,150.2 134.8,295.5 188.3,436.5 h 321.4 c -10,-120.1 -18.1,-234.1 -25.6,-339.8 -16.2,-228.6 -35.6,-502 -68.6,-633.7 -10.8,-42.9 -43.1,-77.1 -85.2,-90.3 -96.8,-30.3 -331.4,-82.7 -895.1,-147.7 m 1105,1528.6 h -243 c 11.1,36.2 21.8,72.1 32,107.7 78.4,69.9 142.3,151.8 185,248 98.1,220.6 83.7,457.6 11.1,710.5 9.8,66.4 19.2,132 28.4,197.1 99.6,700.7 -34.6,1094.6 -273.9,1235.5 599.4,-15.1 1290.8,-35.5 1327.3,-36.6 0.1,0 0.2,0 0.3,0 0.1,0 0.1,0 0.2,0 v 0 c 0.1,0 0.2,0 0.3,0 0,0 0,0 0.1,0 v 0 h 0.1 c 0.1,0 0.1,0 0.2,0 0.1,0 0.2,0 0.3,0 h 0.1 c 0,0 1,-1.2 2.8,-3.2 -26,-2.4 -51.5,-12.7 -72.7,-31.3 -691.2,-609.1 -907.6,-1606 -998.6,-2427.7"
         style="fill:#469bde;fill-opacity:1;fill-rule:nonzero;stroke:none"
         id="path158" /><path
         d="m 38424.4,3692.3 v 0.1 c -4.4,70.7 48.9,131.7 119.4,136.5 221,15 699,49.2 1190.6,95.8 942.3,89.4 1282.9,162.6 1404.9,200.8 42.1,13.2 74.4,47.4 85.2,90.3 33,131.7 52.4,405.1 68.6,633.7 61.6,867.9 163.1,2298.9 1054.7,3084.6 55.6,49 141.3,40.2 186.5,-18.6 41.1,-53.6 34.1,-130.2 -16.7,-174.7 -812.3,-713.3 -905.5,-2028.6 -968,-2909.5 -35.7,-502.2 -57.6,-748.7 -167.3,-863.4 -52.9,-55.3 -151.4,-158.2 -1584.1,-295.9 -508.2,-48.8 -1008.5,-84.6 -1237.1,-100.1 -71,-4.9 -132.3,49.2 -136.7,120.4"
         style="fill:#026eaf;fill-opacity:1;fill-rule:nonzero;stroke:none"
         id="path160" /><path
         d="m 50191.2,9085.3 c -17.4,24.4 -42.4,42.5 -70,55.4 -27.7,12.7 -59.3,18.8 -90.6,16.6 -31.1,-2.2 -62.2,-11.1 -87.7,-28.3 -13.7,-7.1 -24.2,-18.6 -35.5,-28.2 -10.3,-10.9 -19.2,-23 -27.2,-35.3 14.2,5.7 26.1,13.2 38.9,19.1 l 19,8.3 c 3.2,1.3 6.1,3 9.3,4.1 l 9.6,3.2 c 24.9,10.1 50.6,14.4 76.1,16.4 25.6,1.8 51.7,-0.4 77.9,-6.2 26.4,-5.7 52.7,-14.3 80.2,-25.1"
         style="fill:#333333;fill-opacity:1;fill-rule:nonzero;stroke:none"
         id="path162" /><path
         d="m 50296.4,9027.7 c -22.9,-27.7 -43.3,-57.3 -62.2,-87.8 -19,-30.5 -36.2,-62.1 -50.9,-95.4 -6.9,-16.9 -13.5,-34 -17.3,-52.9 -0.8,-4.8 -1.5,-9.8 -1.6,-15 0,-2.6 0.3,-5.6 0.5,-8.3 0.7,-3 1.1,-6 2.7,-9.2 0.9,-1.6 1.8,-3.2 2.8,-4.7 l 2.4,-2.8 c 1.7,-1.8 3.2,-3.7 5,-5.4 3.5,-3.2 6.9,-6.6 10.6,-9.4 14.5,-11.9 30.3,-21.1 46.4,-29.3 16.2,-8 32.7,-15.3 49.9,-20.7 -29.9,19.7 -60.1,39.2 -84.8,62.9 -3.2,2.9 -5.8,6.1 -8.6,9.2 l -3.8,4.7 -1.8,2.3 -0.4,1.2 c -1.7,3.7 -0.7,12.7 1.2,20.3 3.8,16 10.1,32.4 17.1,48.3 13.7,32.3 29.9,63.9 45.6,95.8 15.9,31.8 32,63.6 47.2,96.2"
         style="fill:#f99893;fill-opacity:1;fill-rule:nonzero;stroke:none"
         id="path164" /><path
         d="m 50893.9,9793.7 c 0,0 -176.4,164.2 -589.5,150.7 -413.2,-13.5 -498.8,-233.9 -532.3,-551.1 l -0.6,-348.8 c 0,0 123.4,80.5 272.9,392.2 0,0 222.4,-274.9 323.9,-246.1 101.6,28.8 -30.9,225.9 -30.9,225.9 0,0 436.9,-436 714,-443.5 0,0 182.4,489.1 -17.7,675 0,0 154.8,-12.2 164,19.1 9.2,31.3 -71.4,80.9 -221,67.5 0,0 113,211.7 54.4,235.8 -58.6,24.2 -137.2,-176.7 -137.2,-176.7"
         style="fill:#333333;fill-opacity:1;fill-rule:nonzero;stroke:none"
         id="path166" /><path
         d="m 50111.4,8570.3 c 17.9,-67.8 98.1,-118.5 194,-117.6 95.9,0.9 175.2,53.1 191.8,121.3 l -385.8,-3.7"
         style="fill:#ffffff;fill-opacity:1;fill-rule:nonzero;stroke:none"
         id="path168" /><path
         d="M 19625.9,6132.5 H 7496.54 c -132.55,0 -239.99,107.4 -239.99,240 v 7362.7 c 0,132.5 107.44,240 239.99,240 H 19740.7 c 69.1,0 125.2,-56.1 125.2,-125.3 V 6372.5 c 0,-132.6 -107.4,-240 -240,-240"
         style="fill:#09083c;fill-opacity:1;fill-rule:nonzero;stroke:none"
         id="path170" /><path
         d="M 19589.4,6433.9 H 7526.71 c -27.03,0 -48.94,22 -48.94,49 v 7141.9 c 0,27 21.91,49 48.94,49 H 19589.4 c 27.1,0 49,-22 49,-49 V 6482.9 c 0,-27 -21.9,-49 -49,-49"
         style="fill:#70c0fd;fill-opacity:1;fill-rule:nonzero;stroke:none"
         id="path172" /><path
         d="m 7477.77,8694.8 v 4895.3 c 0,46.2 31.15,83.7 69.6,83.7 H 19568.8 c 38.4,0 69.6,-37.5 69.6,-83.7 v -778.3 L 7477.77,8694.8"
         style="fill:#59adf9;fill-opacity:1;fill-rule:nonzero;stroke:none"
         id="path174" /><path
         d="m 7493.8,10299.6 1.22,-99.2 11.25,-246.6 -485.39,63.9 -52.9,71.9 -4.24,187.4 -15.97,175.5 h 322.68 l 223.35,-152.9"
         style="fill:#ffc0bb;fill-opacity:1;fill-rule:nonzero;stroke:none"
         id="path176" /><path
         d="m 7941.25,4286.2 c 0,0 24.22,-109.1 0,-248.7 C 7917.04,3898 7287.51,580 7287.51,580 l 332.25,-48.5 c 0,0 1084.2,3081.4 1144.73,3287.7 60.53,206.2 127.12,497.4 -78.69,721.8 -205.81,224.4 -744.55,-254.8 -744.55,-254.8"
         style="fill:#ffc0bb;fill-opacity:1;fill-rule:nonzero;stroke:none"
         id="path178" /><path
         d="m 8116.16,484.102 -397.52,479.8 -397.51,-165.203 99.55,-137.597 433.01,-217.801 c 0,0 185.09,-37.199 194.67,-34.5 9.58,2.601 67.8,75.301 67.8,75.301"
         style="fill:#ffc0bb;fill-opacity:1;fill-rule:nonzero;stroke:none"
         id="path180" /><path
         d="m 8116.16,484.102 86.15,-108 c 40.14,-49.5 -8.98,-120.801 -69.35,-100.7 l -834.15,277.297 c -29.42,9.801 -45.36,41.602 -35.6,71.102 l 57.92,174.898 c 496.85,-361.898 706.58,-371.801 795.03,-314.597"
         style="fill:#07085b;fill-opacity:1;fill-rule:nonzero;stroke:none"
         id="path182" /><path
         d="m 6741.25,11631.2 c 0,0 -207.59,136.2 -443.82,0 -236.23,-136.1 -236.23,-595.3 -143.17,-705.2 93.06,-109.9 -4.77,-258.7 181.35,-402.1 186.12,-143.5 482.45,-196.1 651.65,-28.5 169.19,167.5 45.11,541.4 45.11,541.4 l -291.12,594.4"
         style="fill:#07085b;fill-opacity:1;fill-rule:nonzero;stroke:none"
         id="path184" /><path
         d="m 7555.15,461.402 -456.72,285.399 -396.73,-237.699 137.74,-99.2 479.41,-70 c 0,0 187.36,23.098 195.63,28.598 8.26,5.5 40.67,92.902 40.67,92.902"
         style="fill:#ffc0bb;fill-opacity:1;fill-rule:nonzero;stroke:none"
         id="path186" /><path
         d="m 6453.36,4600.8 c 0,0 65.39,-1581.1 71.45,-1854.1 6.05,-272.9 145.27,-2298.899 205.81,-2474.802 l 338.97,24.204 c 0,0 231.22,3922.598 158.58,4304.698 -72.64,382.2 -774.81,0 -774.81,0"
         style="fill:#ffc0bb;fill-opacity:1;fill-rule:nonzero;stroke:none"
         id="path188" /><path
         d="m 5726.86,5892.3 c -116.79,24.1 -145.93,-51.3 -264.02,-26.7 l 27.75,-182.5 c -15.85,-35.5 -51.29,-130.3 -51.29,-130.3 -131.53,-381.9 -124.28,-340.8 -111.2,-347.9 13.07,-7.1 111.89,134.2 123.11,121 11.22,-13.1 -56.56,-240.4 -36.4,-234.4 20.15,6 108.18,208.2 119.58,200.6 11.4,-7.6 -57.19,-225.9 -27.5,-233.5 29.7,-7.7 96.82,234 117.94,218.4 21.11,-15.7 -53.91,-261.6 -25.72,-264.2 23.71,-2.2 114.32,270.8 142.56,357.8 3.64,11.2 18.32,13.7 25.68,4.5 113.35,-141.8 130.41,-146.2 143.09,-130.2 9.03,11.4 -49.3,165.8 -95.67,313.4 l -61.6,179.9 -26.31,154.1"
         style="fill:#ffc0bb;fill-opacity:1;fill-rule:nonzero;stroke:none"
         id="path190" /><path
         d="M 7555.15,461.402 7670.87,386 c 53.64,-34.199 29.42,-117.398 -34.18,-117.398 h -878.85 c -31,0 -56.14,25.199 -56.14,56.199 v 184.301 c 585.31,-186.7 787.47,-129.899 853.45,-47.7"
         style="fill:#07085b;fill-opacity:1;fill-rule:nonzero;stroke:none"
         id="path192" /><path
         d="m 10369,10104.3 c 2.2,-11 15.8,-15.2 23.7,-7.3 61.5,61.4 256.5,253.4 275.6,241.3 22.8,-14.4 -147.2,-190.3 -136.1,-212.7 11.1,-22.5 172.6,153.2 194.5,133.8 21.8,-19.3 -130.8,-174.6 -124.4,-186 6.4,-11.3 168.5,121.7 188.1,118.1 19.7,-3.7 -136,-166.9 -132.2,-182.9 3.8,-16 148.7,60.8 156.7,49.1 8,-11.7 15.3,-18.1 -261.4,-284.6 l -113.4,-100.3 -136.7,-31.8 -96.5,138.7 c 0,0 78.6,488.7 97.1,497.1 17.7,8.1 30.3,-3 65,-172.5"
         style="fill:#ffc0bb;fill-opacity:1;fill-rule:nonzero;stroke:none"
         id="path194" /><path
         d="m 6677.56,4600.8 281.21,-1042.9 c 649.47,0.7 1618.37,61 2099.66,382.5 0,0 -629.2,2930.4 -1046.87,3664.3 l -1434.61,78.9 c 0,0 -994.85,-1388.7 -268.46,-4106.2 0,0 124.2,-9.1 322.41,-14.9 l 46.66,1038.3"
         style="fill:#09083c;fill-opacity:1;fill-rule:nonzero;stroke:none"
         id="path196" /><path
         d="m 7902.56,11079.9 c -29.67,-80.8 -1.44,-165.6 63.07,-189.4 64.52,-23.8 140.87,22.4 170.55,103.2 29.68,80.8 1.44,165.6 -63.07,189.4 -64.51,23.8 -140.87,-22.4 -170.55,-103.2"
         style="fill:#f99893;fill-opacity:1;fill-rule:nonzero;stroke:none"
         id="path198" /><path
         d="m 6942.53,10496.9 c 0,0 12.82,-99.5 21.21,-219.9 108.49,-88 248.75,-132.9 394.92,-114 48.08,6.2 93.73,19.1 136.36,37.4 -3.38,78.5 -2.21,151.3 9.91,186.1 33.33,95.9 -562.4,110.4 -562.4,110.4"
         style="fill:#f99893;fill-opacity:1;fill-rule:nonzero;stroke:none"
         id="path200" /><path
         d="m 7974.55,9989.9 1359.1,-1031.5 870.15,894.4 c 0,0 260.4,-201.2 260.4,-197.5 0,3.7 -818.17,-1278.2 -1018.98,-1345.3 -200.82,-67.1 -1496.57,837.8 -1496.57,837.8 l 25.9,842.1"
         style="fill:#ffffff;fill-opacity:1;fill-rule:nonzero;stroke:none"
         id="path202" /><path
         d="m 7895.75,10612.9 c 18.62,35.1 34.11,72.1 46.19,110.7 34.56,103.9 50.05,213.4 55.99,308.6 1.28,20.5 3.73,40.8 6.56,61 11.44,81.9 8.18,168.2 -13.95,256.3 -71.18,283.5 -324.57,490.2 -616.02,501.7 -392.64,15.6 -705.78,-305.3 -692.64,-688.3 -42.35,21.7 -89.21,25.4 -129.67,5.6 -77.62,-38 -102.11,-147.6 -54.71,-244.9 47.41,-97.2 148.77,-145.2 226.39,-107.2 10.78,5.3 20.42,12 29.1,19.9 44.33,-324.8 319.47,-567.2 638.91,-550.9 156.23,8 295.59,76.5 398.6,182.7 6.92,6.2 14.15,13.5 21.74,21.9 33.26,36.9 60.68,78.6 83.51,122.9"
         style="fill:#ffc0bb;fill-opacity:1;fill-rule:nonzero;stroke:none"
         id="path204" /><path
         d="m 7297.97,11071.4 c 1.76,-34.5 -24.75,-64 -59.2,-65.7 -34.44,-1.8 -63.79,24.8 -65.54,59.3 -1.76,34.5 24.74,63.9 59.19,65.7 34.45,1.7 63.8,-24.8 65.55,-59.3"
         style="fill:#333333;fill-opacity:1;fill-rule:nonzero;stroke:none"
         id="path206" /><path
         d="m 7810.57,11071.4 c 1.75,-34.5 -24.75,-64 -59.2,-65.7 -34.45,-1.8 -63.79,24.8 -65.55,59.3 -1.75,34.5 24.75,63.9 59.19,65.7 34.45,1.7 63.8,-24.8 65.56,-59.3"
         style="fill:#333333;fill-opacity:1;fill-rule:nonzero;stroke:none"
         id="path208" /><path
         d="m 7488.66,11190.7 c -0.37,-20.2 -0.58,-40.4 0.21,-60.5 0.54,-20.1 1.71,-40.1 3.67,-60 2.15,-19.9 4.76,-39.8 9.61,-58.9 4.67,-19.1 11.17,-38.2 22.43,-53.2 1.49,-1.8 2.77,-3.8 4.46,-5.4 1.64,-1.7 3.04,-3.2 5.08,-5.2 1.91,-1.8 3.84,-3.7 5.54,-5.8 1.8,-2 3.48,-4.1 5,-6.3 6.31,-8.8 10.88,-19.1 12.36,-30 3.32,-22 -5.61,-44 -19.6,-59.5 -13.92,-15.9 -32.3,-26.8 -51.51,-33.7 -19.35,-6.7 -39.68,-9.8 -59.83,-9.7 10.01,1.2 19.91,2.9 29.62,5.2 9.7,2.4 19.15,5.6 28.19,9.6 18.09,7.9 34.75,19.3 46.86,34.3 12.02,14.8 19.16,33.9 15.82,52.2 -1.45,9 -5.23,17.7 -10.77,25.2 -1.31,1.9 -2.8,3.7 -4.39,5.4 -1.48,1.9 -3.22,3.5 -4.91,5.1 l -5.56,5.6 c -2.02,1.8 -3.53,4.1 -5.25,6.2 -6.45,8.6 -11.12,18.2 -14.93,27.9 -3.82,9.7 -6.65,19.6 -8.87,29.7 -4.43,20 -6.86,40.3 -8,60.6 -2.37,40.5 -0.46,81.1 4.77,121.2"
         style="fill:#f99893;fill-opacity:1;fill-rule:nonzero;stroke:none"
         id="path210" /><path
         d="m 8155.13,8642.1 c 4.79,5.1 213.3,228 172.76,645.9 -22.01,226.8 -138.81,433.9 -242.36,577.2 -91.61,126.8 -237.29,202.9 -393.46,205.8 -285.19,5.3 -740.38,11.5 -740.38,11.5 0,0 -587.26,64.6 -773.46,-165 -186.2,-229.7 -816.43,-1822.9 -852.24,-2583.6 -35.81,-760.7 150.39,-1657.8 150.39,-1657.8 0,0 207.69,-14.4 300.79,0 93.1,14.3 -21.48,1471.2 78.78,1708 100.27,236.8 551.45,1370.7 580.1,1478.4 l 111.78,-593.7 c 20.61,-109.4 11.08,-222.4 -27.6,-326.8 -94.85,-256 -277.94,-748 -351.66,-930.3 0,0 1409.92,-227.3 2104.6,117.1 l -6.34,26.8 c -115.52,486.9 -152.45,988.5 -111.7,1486.5"
         style="fill:#ffffff;fill-opacity:1;fill-rule:nonzero;stroke:none"
         id="path212" /><path
         d="m 7350.48,11175.7 c -28.38,15.1 -57.88,26.3 -87.91,33.8 -30.09,7.2 -60.81,9.9 -91.02,7 -15.13,-1.3 -30.07,-4.3 -44.7,-8.5 -7.41,-1.9 -14.53,-4.6 -21.78,-7.1 -3.62,-1.3 -7.07,-3 -10.64,-4.4 -3.57,-1.4 -7.17,-2.8 -10.59,-4.6 -27.9,-13.4 -54.18,-30.8 -79.88,-50.3 19.08,26 43.45,48.5 71.62,65.7 14.06,8.6 29.14,15.8 44.98,21 15.78,5.3 32.22,9 48.88,10.5 33.29,3.1 67.13,-1.4 98.09,-12.6 15.56,-5.5 30.37,-12.7 44.4,-20.9 13.9,-8.5 27.22,-18 38.55,-29.6"
         style="fill:#07085b;fill-opacity:1;fill-rule:nonzero;stroke:none"
         id="path214" /><path
         d="m 7602.12,11175.7 c 11.34,11.6 24.67,21.1 38.56,29.6 14.03,8.2 28.84,15.4 44.39,20.9 30.97,11.2 64.81,15.7 98.1,12.6 16.66,-1.5 33.1,-5.2 48.88,-10.5 15.85,-5.2 30.92,-12.4 44.98,-21 28.18,-17.2 52.55,-39.7 71.62,-65.7 -25.7,19.5 -51.98,36.9 -79.88,50.3 -3.42,1.8 -7.02,3.2 -10.59,4.6 -3.57,1.4 -7.02,3.1 -10.64,4.4 -7.25,2.5 -14.37,5.2 -21.77,7.1 -14.65,4.2 -29.58,7.2 -44.71,8.5 -30.21,2.9 -60.93,0.2 -91.02,-7 -30.04,-7.5 -59.53,-18.7 -87.92,-33.8"
         style="fill:#07085b;fill-opacity:1;fill-rule:nonzero;stroke:none"
         id="path216" /><path
         d="m 6841.49,10089.6 c 0,0 448.58,-569.6 544.03,-775.3 0,0 263.31,346.3 274.83,759 l -818.86,16.3"
         style="fill:#ffc0bb;fill-opacity:1;fill-rule:nonzero;stroke:none"
         id="path218" /><path
         d="m 7385.52,9314.3 c 12.09,-197.6 19.72,-395.4 24.08,-593.3 2.67,-99 3.37,-197.9 4.67,-296.9 0.4,-99 0.53,-198 -0.27,-297 -0.43,-49.5 -1.03,-99 -2.12,-148.5 -1.06,-49.5 -1.63,-99 -3.1,-148.5 -3.48,-98.9 -6.15,-197.9 -11.98,-296.8 -10.48,-197.7 -25.48,-395.5 -54.09,-591.5 l 4.97,74.1 5.57,73.9 c 2.98,49.4 5.01,98.8 7.57,148.2 l 1.99,37 1.36,37 2.69,74.1 2.9,74.1 1.92,74.1 c 5.72,197.6 8.59,395.4 10.13,593.1 2.25,197.7 2.36,395.5 2.75,593.3 l 0.96,593.6"
         style="fill:#81caef;fill-opacity:1;fill-rule:nonzero;stroke:none"
         id="path220" /><path
         d="m 6484.8,9050.1 c -2.86,-16 -5.24,-32 -8.51,-47.9 -3.49,-15.8 -6.46,-31.7 -10.63,-47.4 -8.1,-31.3 -16.82,-62.6 -29.61,-92.3 9.36,30.9 16.47,62.3 21.94,94 6.03,31.6 10.28,63.5 14.41,95.3 7.55,63.8 11.62,128 13.43,192.2 l 1.19,48.2 -0.29,48.2 c 0.56,32.2 -1.61,64.3 -2.06,96.5 -0.11,16.1 -1.69,32.2 -2.33,48.2 l -2.41,48.3 c -2.01,32.2 -4.91,64.3 -6.59,96.6 5.31,-31.9 9.78,-63.9 14.45,-95.9 3.26,-32.1 7.2,-64.2 9.43,-96.5 l 2.94,-48.4 c 1.12,-16.2 1.5,-32.3 1.82,-48.5 l 0.77,-48.6 -17.95,-242"
         style="fill:#81caef;fill-opacity:1;fill-rule:nonzero;stroke:none"
         id="path222" /><path
         d="m 7966.68,11691.7 c -122.92,423.3 -684.03,438.2 -684.03,438.2 -867.79,-60.3 -731.12,-823.1 -702.46,-949.3 25.11,5.8 59.66,5.1 101.69,-17.7 17.66,-9.6 31.95,-19.8 43.57,-30 102.23,31.3 133.19,201.3 186.09,283.3 71.79,111.1 388.18,53.8 508.25,132.7 120.07,78.9 132.34,200.8 132.34,200.8 462.87,-73.5 455.7,-563.7 455.7,-563.7 20.02,4.5 44.74,2.3 44.74,2.3 0,0 23.92,125.3 -85.89,503.4"
         style="fill:#07085b;fill-opacity:1;fill-rule:nonzero;stroke:none"
         id="path224" /><path
         d="m 7658.89,10728.7 c -15.78,-65 -91.4,-114.9 -182.93,-115.9 -91.53,-1 -168.24,47.2 -185.46,111.9 l 368.39,4"
         style="fill:#ffffff;fill-opacity:1;fill-rule:nonzero;stroke:none"
         id="path226" /><path
         d="m 14102.5,16956.5 c 0,-1102.7 -892,-1996.6 -1992.4,-1996.6 -1100.4,0 -1992.4,893.9 -1992.4,1996.6 0,1102.6 892,1996.5 1992.4,1996.5 1100.4,0 1992.4,-893.9 1992.4,-1996.5"
         style="fill:#09083c;fill-opacity:1;fill-rule:nonzero;stroke:none"
         id="path228" /><path
         d="m 13812.7,17063.5 c 59,-942.3 -655.4,-1754.1 -1595.7,-1813.2 -940.4,-59.1 -1750.5,656.8 -1809.5,1599.1 -59,942.3 655.4,1754.1 1595.8,1813.2 940.3,59.2 1750.4,-656.8 1809.4,-1599.1"
         style="fill:#ffffff;fill-opacity:1;fill-rule:nonzero;stroke:none"
         id="path230" /><path
         d="m 10904.3,16990.1 v -48.4 h -628.9 v 48.4 h 628.9"
         style="fill:#09083c;fill-opacity:1;fill-rule:nonzero;stroke:none"
         id="path232" /><path
         d="m 13948.7,16990.1 v -48.4 h -628.9 v 48.4 h 628.9"
         style="fill:#09083c;fill-opacity:1;fill-rule:nonzero;stroke:none"
         id="path234" /><path
         d="m 12131.6,18151.9 h -48.3 v 630.2 h 48.3 v -630.2"
         style="fill:#09083c;fill-opacity:1;fill-rule:nonzero;stroke:none"
         id="path236" /><path
         d="m 12131.6,15113.3 h -48.3 v 630.3 h 48.3 v -630.3"
         style="fill:#09083c;fill-opacity:1;fill-rule:nonzero;stroke:none"
         id="path238" /><path
         d="m 12162.2,16956.5 c 0,-28.9 -23.3,-52.2 -52.1,-52.2 -28.8,0 -52.1,23.3 -52.1,52.2 0,28.8 23.3,52.1 52.1,52.1 28.8,0 52.1,-23.3 52.1,-52.1"
         style="fill:#09083c;fill-opacity:1;fill-rule:nonzero;stroke:none"
         id="path240" /><path
         d="m 12110.1,16933.1 c -6,0 -11.9,2.3 -16.5,6.9 l -935.4,937.4 c -9.1,9.1 -9.1,23.8 0,32.9 9.1,9.1 23.8,9.1 32.9,0 l 935.5,-937.4 c 9,-9.1 9,-23.8 0,-32.9 -4.6,-4.6 -10.5,-6.9 -16.5,-6.9"
         style="fill:#09083c;fill-opacity:1;fill-rule:nonzero;stroke:none"
         id="path242" /><path
         d="m 12410.9,16009.1 c -3.9,2 -7,5.4 -8.5,9.8 l -302.4,915.3 c -2.9,8.9 1.9,18.5 10.8,21.4 8.9,2.9 18.4,-1.9 21.4,-10.8 l 302.3,-915.2 c 3,-8.9 -1.8,-18.5 -10.7,-21.4 -4.4,-1.5 -9,-1 -12.9,0.9"
         style="fill:#09083c;fill-opacity:1;fill-rule:nonzero;stroke:none"
         id="path244" /><path
         d="m 50671.6,7308.9 0.6,2 -0.6,-2"
         style="fill:#ffc0bb;fill-opacity:1;fill-rule:nonzero;stroke:none"
         id="path246" /><path
         d="m 50684.4,7352.5 0.8,2.7 -0.8,-2.7"
         style="fill:#ffc0bb;fill-opacity:1;fill-rule:nonzero;stroke:none"
         id="path248" /><path
         d="m 50696.8,7395.2 0.4,1.5 -0.4,-1.5"
         style="fill:#ffc0bb;fill-opacity:1;fill-rule:nonzero;stroke:none"
         id="path250" /><path
         d="m 50719.1,7472.8 0.3,1.3 -0.3,-1.3"
         style="fill:#ffc0bb;fill-opacity:1;fill-rule:nonzero;stroke:none"
         id="path252" /><path
         d="m 50746.9,7571.2 c 0.3,1.1 0.6,2.1 0.9,3.1 -0.3,-1 -0.6,-2 -0.9,-3.1"
         style="fill:#ffc0bb;fill-opacity:1;fill-rule:nonzero;stroke:none"
         id="path254" /><path
         d="m 51082.6,5965 c -453.6,18.2 -772.7,327.8 -772.7,327.8 v 0 c -14.9,-23.7 -28.5,-39.9 -40.5,-46.6 -140.6,-79.3 -1919.1,-460.2 -2094.9,-444.8 -175.8,15.5 -341.3,-160 -376.4,-295 h 652 45.2 2283.8 c 0,0 313.1,475.7 303.5,458.6"
         style="fill:#ffc0bb;fill-opacity:1;fill-rule:nonzero;stroke:none"
         id="path256" /><path
         d="m 50738.5,7541.2 0.6,2.1 -0.6,-2.1"
         style="fill:#ffc0bb;fill-opacity:1;fill-rule:nonzero;stroke:none"
         id="path258" /><path
         d="m 50728.8,7506.8 c 0.4,1.5 0.8,3 1.2,4.4 -0.4,-1.4 -0.8,-2.9 -1.2,-4.4"
         style="fill:#ffc0bb;fill-opacity:1;fill-rule:nonzero;stroke:none"
         id="path260" /><path
         d="m 50877.6,7812.2 c -63.3,-63.1 -106.8,-143.3 -130.8,-229.5 -76.1,-272.5 -340,-1068.1 -473.2,-1279.7 0,0 355.6,-357.8 809.2,-376.1 158.3,280.9 317.7,681.5 351.2,1070.7 59.3,688.6 -261.9,1108.4 -556.4,814.6"
         style="fill:#00aa99;fill-opacity:1;fill-rule:nonzero;stroke:none"
         id="path262" /><path
         d="m 31483.6,12522.3 c -7.1,62.2 -15.4,125.9 -44.3,181.4 -35.2,67.6 -96.9,116.3 -150.8,170 -100.7,100.3 -178.3,223.8 -224.8,358.3 -36,104 -53.9,214.7 -103.5,312.9 -30.3,60 -71.6,113.6 -106,171.3 -81.2,136.3 -125.5,297.4 -235.7,411.5 -21.2,-138.3 20.7,-285.1 111.7,-391.3 27.2,-31.7 58.7,-60.2 79.3,-96.5 37.6,-65.7 34.2,-146 38.6,-221.6 8.2,-142.2 48.3,-282.4 116.4,-407.5 72.3,-132.8 176.7,-251 215.3,-397.3 29,-109.6 20.4,-232.5 82.2,-327.5 6.7,-10.2 14.3,-20.6 16,-32.8 0.9,-6.8 -0.2,-13.7 -1.2,-20.5 -1.4,-8.9 -2.8,-17.7 -4.2,-26.5 -14,-89.7 -28.6,-203.8 48.5,-271 53.4,-46.5 122.2,-47.5 160.5,14.3 38.7,62.2 35.2,153.3 32.4,223.3 -4.8,116.6 -17.3,233.5 -30.4,349.5"
         style="fill:#4188e4;fill-opacity:1;fill-rule:nonzero;stroke:none"
         id="path264" /><path
         d="m 31622.4,12594.4 c -30,103.8 -76.5,202.7 -99.8,308.3 -22.7,102.3 -22.8,208.1 -22.9,313 -0.1,114.9 -0.2,229.7 -0.3,344.6 0,71.6 -0.1,143.5 -11.9,214 -25.4,151.8 -104.3,292.1 -117.7,445.4 -5.8,66.3 1,133.3 -6.3,199.4 -4.2,37.8 -13.9,76.4 -31.4,109.9 -18.8,36.1 -70.8,34.5 -87.8,-2.4 -38.3,-83.1 -62.6,-172.8 -47.1,-261.7 9.2,-53.4 32.3,-103.1 49.6,-154.5 76.8,-228.5 36,-481.5 95.5,-715.2 17.9,-70.5 45.1,-139.7 48.2,-212.4 7.6,-174.1 -122.4,-333.1 -110.5,-506.9 9.8,-142.5 112.2,-260.4 155.2,-396.6 24.1,-76.2 29.3,-157.6 55.1,-233.3 20,-58.8 66.6,-130.2 139,-112.3 68.7,16.9 47.9,73 44.9,126.6 -10.4,181.2 -0.7,357 -51.8,534.1"
         style="fill:#70c0fd;fill-opacity:1;fill-rule:nonzero;stroke:none"
         id="path266" /><path
         d="m 31779.7,12499.3 c -3,53.9 -12.1,108.2 -4.6,161.7 6.4,45.2 24.4,87.7 37.2,131.5 24.1,82.1 30,168.2 35.9,253.5 10.6,155.1 21.2,310.1 31.8,465.2 16.4,241.1 33,482.8 78.1,720.2 12.5,65.9 26.5,137.3 -3.1,197.5 -6.2,12.7 -18.5,26.1 -32,21.9 -9.6,-3 -14.3,-13.6 -17.8,-23 -98.5,-267.8 -135.7,-556 -245.7,-819.3 -26.4,-63.1 -57,-125.1 -70.6,-192.1 -16.4,-80.4 -7.4,-163.5 -5.3,-245.6 3,-117.7 -8.4,-236.2 -40.9,-349.4 -17,-59.2 -39.8,-117 -49.1,-177.9 -11.6,-75.9 -1.9,-153.3 5.4,-229.7 14,-147 18.7,-294.9 14.2,-442.5 -2.7,-86.8 70.5,-84.5 119.1,-31.2 33.9,37.3 33.6,78.2 45.2,124.6 38.1,152.4 111.5,269.4 102.2,434.6"
         style="fill:#4188e4;fill-opacity:1;fill-rule:nonzero;stroke:none"
         id="path268" /><path
         d="m 31322.1,12264 c -64.8,104 -193.8,163.2 -235.2,278.6 -10.5,29.4 -14.7,61 -27.5,89.4 -28.6,63.1 -93.6,98.8 -157.5,127.8 -8.9,4.1 -18.9,-2.4 -19.1,-12.1 -0.2,-15.5 7.2,-30.3 20,-39 49.2,-33.1 86.6,-83.8 103.3,-140.8 19.7,-67.7 11.2,-141.8 35.7,-207.9 20.6,-55.4 63,-100.8 82.9,-156.5 18.2,-50.9 16.3,-106.5 24.8,-159.9 8.6,-53.4 32.3,-110.1 81.3,-132.7 177.5,-81.7 133.1,285.8 91.3,353.1"
         style="fill:#70c0fd;fill-opacity:1;fill-rule:nonzero;stroke:none"
         id="path270" /><path
         d="m 32060,12298.3 c -2.8,-50.3 4.9,-103 -14.8,-149.4 -12.6,-29.7 -35.2,-53.7 -53.8,-80 -65.3,-92.3 -89,-223.2 -189.4,-275.2 -6.6,-3.5 -14,-6.5 -21.3,-5.2 -10.3,1.9 -17,11.9 -21.2,21.5 -24.6,57.3 3,121.9 19.4,182.1 2.8,10.5 5.2,22.3 0.2,32 -5.5,10.6 -18.1,15.2 -26.7,23.6 -17.1,16.7 -15.5,44.3 -12.1,68 8.5,59.2 20.4,117.9 35.8,175.7 8.7,32.8 18.7,65.9 37.6,94 20.8,31 51,54.1 79.3,78.4 124.9,107.5 220.6,248.8 274.2,404.9 11.6,33.8 22,69.4 45.9,95.9 24,26.4 66.7,40.1 95.9,19.5 20.7,-14.6 -64.3,-151.4 -74.2,-167.8 -28.4,-46.8 -28.7,-87.6 -44.8,-139.7 -39.2,-127.5 -122.5,-241.6 -130,-378.3"
         style="fill:#4188e4;fill-opacity:1;fill-rule:nonzero;stroke:none"
         id="path272" /><path
         d="m 31961.1,12240.1 c 18.5,48 37.3,96.7 43.4,147.8 6.8,56.8 -2.2,114.9 7.5,171.3 12.4,72.5 54.7,136.2 75.6,206.7 15.1,51 18.9,104.5 27.9,156.8 26,149.7 96.4,295.9 76.1,446.5 -4.3,32.7 -19.1,70.9 -51.6,76.5 -29.4,5.1 -56.2,-21.8 -63.9,-50.8 -7.6,-28.9 -1.9,-59.4 0.2,-89.2 5.8,-83.2 -17.9,-168.2 -66,-236.3 -46.3,-65.4 -113.3,-114.6 -154.9,-183.1 -51,-84 -58,-186.5 -84,-281.3 -51.8,-188.5 -181.7,-352.9 -205.3,-547 -9.5,-77.2 8.7,-171.1 79.9,-201.9 206.2,-89.2 268.4,263.3 315.1,384"
         style="fill:#70c0fd;fill-opacity:1;fill-rule:nonzero;stroke:none"
         id="path274" /><path
         d="m 31600.7,12098.3 h -473 c -32.3,0 -56.2,-30.2 -48.7,-61.8 l 172.4,-727.1 c 5.4,-22.6 25.5,-38.6 48.7,-38.6 h 267.7 32.9 267.7 c 23.2,0 43.3,16 48.7,38.6 l 172.4,727.1 c 7.5,31.6 -16.3,61.8 -48.7,61.8 h -440.1"
         style="fill:#ffffff;fill-opacity:1;fill-rule:nonzero;stroke:none"
         id="path276" /><path
         d="m 38526.8,8831.4 c 104.1,406 269.8,566.9 558,718.5 220.7,116 481.4,153.4 748.9,66.8 545.3,-176.7 686.1,-774.5 741.2,-1083.6 187.8,-1053.7 1069,-1950 748.3,-2671 -320.7,-721.1 -1825.9,-643.9 -1825.9,-643.9 l -690.3,497.5 c 0,0 -61.3,1211.4 -61.5,1310.3 -0.2,98.8 -261.6,91.7 -261.6,586.9 0,394.6 -79.6,741.1 42.9,1218.5"
         style="fill:#333333;fill-opacity:1;fill-rule:nonzero;stroke:none"
         id="path278" /><path
         d="m 36698.6,7341.1 c -1,-12.2 -15.1,-18.6 -24.8,-11 -74.8,58.4 -311.2,240.9 -330.4,225.2 -22.8,-18.7 184.5,-186.8 175.5,-212.6 -9.1,-25.9 -207.2,143.3 -228.4,119.4 -21.1,-23.9 164.6,-172 159.2,-185.2 -5.4,-13.2 -198.5,109.7 -219.4,103.1 -20.8,-6.5 169.4,-162.8 167.4,-180.7 -2.1,-17.8 -169.2,46.3 -176.3,32.5 -7.1,-13.7 -14.2,-21.6 320.7,-274 l 136,-93.7 152.4,-16.4 86.4,163 c 0,0 -149.4,519.2 -170.6,526 -20.2,6.4 -32.4,-7.3 -47.7,-195.6"
         style="fill:#ffc0bb;fill-opacity:1;fill-rule:nonzero;stroke:none"
         id="path280" /><path
         d="m 38977.7,7579 c 0,0 -1166.9,-1323.8 -1216.2,-1329.6 -49.2,-5.9 -831.3,910.3 -831.3,910.3 0,0 -280.4,-233.4 -329.1,-314.2 0,0 835.7,-1392.9 1050.3,-1471.9 214.6,-79 1639.6,1265.6 1639.6,1265.6 l -313.3,939.8"
         style="fill:#ef5488;fill-opacity:1;fill-rule:nonzero;stroke:none"
         id="path282" /><path
         d="m 38841.6,5874.7 14,-7.2 c 0,0 1.3,10.9 3.6,29.9 -5.9,-7.7 -11.8,-15.3 -17.6,-22.7"
         style="fill:#f4a640;fill-opacity:1;fill-rule:nonzero;stroke:none"
         id="path284" /><path
         d="m 39923,7566.3 c -59.5,-59.4 -100.4,-134.8 -123,-215.8 -79.5,-284.9 -344.6,-1209.2 -456.4,-1272.2 -132.2,-74.5 -1804.2,-432.7 -1969.5,-418.1 -165.3,14.5 -320.8,-150.5 -353.9,-277.4 h 613 42.5 2147.2 c 0,0 560.7,690.6 623.2,1417.6 55.7,647.4 -246.2,1042.1 -523.1,765.9"
         style="fill:#ffc0bb;fill-opacity:1;fill-rule:nonzero;stroke:none"
         id="path286" /><path
         d="m 39708.4,8105.9 v -467.2 c 0,-26 -14.8,-49.7 -38.3,-60.7 -71.3,-33.4 -230.7,-88.3 -379.5,-0.9 -20.1,11.8 -32,34 -32,57.3 v 422 l 449.8,49.5"
         style="fill:#ffc0bb;fill-opacity:1;fill-rule:nonzero;stroke:none"
         id="path288" /><path
         d="m 39708.4,7855.7 v 250.2 l -449.8,-49.5 v -212.3 c 84.4,-25.6 241.5,-51.1 449.8,11.6"
         style="fill:#f99893;fill-opacity:1;fill-rule:nonzero;stroke:none"
         id="path290" /><path
         d="m 38963.1,8185.8 c -15.8,32.3 -28.6,66.3 -38.4,101.7 -28,95 -38.6,194.6 -41.1,281 -0.5,18.6 -2.1,37 -4,55.5 -7.8,74.5 -2.2,152.5 20.6,231.5 73.2,254.4 309,433.6 573.2,435 355.9,1.9 629.4,-298.4 605.6,-644.7 39,18.3 81.5,20.2 117.5,1 69.1,-36.8 87.9,-136.8 41.9,-223.3 -45.9,-86.6 -139.1,-126.9 -208.2,-90 -9.6,5.1 -18.1,11.5 -25.7,18.8 -50.3,-292.6 -306.8,-503.4 -595.5,-478.7 -141.2,12.1 -265.2,78.5 -355.1,177.8 -6.1,5.9 -12.4,12.7 -19,20.5 -29,34.5 -52.5,73.1 -71.8,113.9"
         style="fill:#ffc0bb;fill-opacity:1;fill-rule:nonzero;stroke:none"
         id="path292" /><path
         d="m 39506.2,8556.6 c -2.2,-26.6 17.5,-50.1 44.1,-52.4 26.6,-2.2 50,17.5 52.3,44.2 2.3,26.7 -17.4,50.1 -44.1,52.4 -26.6,2.3 -50,-17.5 -52.3,-44.2"
         style="fill:#333333;fill-opacity:1;fill-rule:nonzero;stroke:none"
         id="path294" /><path
         d="m 39090.1,8564.9 c -2.2,-26.7 17.5,-50.1 44.1,-52.4 26.6,-2.3 50,17.5 52.3,44.2 2.3,26.6 -17.5,50.1 -44.1,52.4 -26.6,2.2 -50,-17.5 -52.3,-44.2"
         style="fill:#333333;fill-opacity:1;fill-rule:nonzero;stroke:none"
         id="path296" /><path
         d="m 39456.3,8657.4 c 24.4,7.6 47.6,13.5 70.7,16.9 23,3.4 45.6,3.7 67.6,0.7 21.9,-3.3 43.8,-8.5 64.7,-18.7 l 8.1,-3.3 c 2.7,-1.2 5.1,-2.8 7.8,-4.1 l 15.9,-8.4 c 10.7,-5.8 20.6,-13 32.4,-18.8 -6.1,11.2 -13.1,22.1 -21.4,32.2 -9.1,8.9 -17.5,19.5 -28.9,26.4 -21,16.3 -47.4,25.9 -74.1,29.7 -26.8,3.7 -54.4,0.3 -79.1,-8.9 -24.6,-9.5 -47.3,-23.7 -63.7,-43.7"
         style="fill:#333333;fill-opacity:1;fill-rule:nonzero;stroke:none"
         id="path298" /><path
         d="m 39261.5,8664.1 c -15,21.1 -36.7,36.8 -60.6,48 -24,10.9 -51.3,16.2 -78.3,14.3 -26.9,-1.9 -53.9,-9.7 -76,-24.5 -11.8,-6.1 -20.9,-16.1 -30.6,-24.4 -8.9,-9.4 -16.7,-19.9 -23.6,-30.6 12.3,5 22.6,11.5 33.7,16.5 l 16.4,7.3 c 2.8,1.1 5.3,2.6 8.1,3.6 l 8.3,2.7 c 21.5,8.7 43.7,12.4 65.8,14.2 22.2,1.5 44.7,-0.4 67.4,-5.4 22.8,-4.9 45.6,-12.4 69.4,-21.7"
         style="fill:#333333;fill-opacity:1;fill-rule:nonzero;stroke:none"
         id="path300" /><path
         d="m 39352.5,8614.3 c -19.8,-24 -37.4,-49.6 -53.8,-76 -16.4,-26.4 -31.3,-53.7 -44,-82.6 -6,-14.5 -11.7,-29.4 -15,-45.7 -0.7,-4.2 -1.3,-8.5 -1.4,-13 0,-2.3 0.3,-4.8 0.4,-7.1 0.7,-2.7 1,-5.2 2.4,-8 0.7,-1.4 1.5,-2.8 2.4,-4.1 l 2.1,-2.4 c 1.4,-1.6 2.8,-3.3 4.3,-4.7 3,-2.8 6,-5.7 9.2,-8.1 12.5,-10.3 26.2,-18.2 40.1,-25.4 14,-6.9 28.3,-13.2 43.2,-17.8 -25.9,16.9 -52,33.9 -73.4,54.3 -2.7,2.5 -5,5.3 -7.4,8 l -3.3,4.1 -1.6,2 -0.3,1 c -1.5,3.3 -0.7,11 1,17.5 3.3,13.9 8.7,28.1 14.8,41.9 11.9,27.9 25.9,55.2 39.4,82.8 13.8,27.5 27.8,55.1 40.9,83.3"
         style="fill:#f99893;fill-opacity:1;fill-rule:nonzero;stroke:none"
         id="path302" /><path
         d="m 38182.9,1372.7 27.7,-692.7 -332.7,-2.301 -31.8,654.201 336.8,40.8"
         style="fill:#ffc0bb;fill-opacity:1;fill-rule:nonzero;stroke:none"
         id="path304" /><path
         d="m 37334.3,282.199 956.4,-6.5 c 20.9,-0.097 37.7,16.301 37.5,36.801 l -0.2,27.602 c -0.2,20.5 -17.3,37.199 -38.2,37.3 l -956.4,6.5 c -20.9,0.2 -37.7,-16.3 -37.5,-36.8 l 0.2,-27.602 c 0.2,-20.5 17.3,-37.199 38.2,-37.301"
         style="fill:#ffffff;fill-opacity:1;fill-rule:nonzero;stroke:none"
         id="path306" /><path
         d="m 38277.7,686.602 36.7,-283.2 c 4.5,-34.902 -15.2,-66.504 -41.3,-66.3 l -909.5,6.199 c -23.7,0.101 -47.1,14.699 -59.8,42 -13,27.898 -15.9,69.801 24.4,125.898 80.4,112.203 347.7,137.903 477.7,233.301 l 423.7,-2.898 c 23.6,-0.102 44,-23.403 48.1,-55"
         style="fill:#09083c;fill-opacity:1;fill-rule:nonzero;stroke:none"
         id="path308" /><path
         d="m 37871.7,579.699 v 0 c 6.5,4 8.8,14.801 4.9,23.102 -18.2,38.902 -74.8,133.601 -188.2,115 -6.6,-1.098 -10.9,-9.602 -9.7,-18.403 v -0.296 c 1.2,-8.5 7.1,-14.102 13.5,-13.102 101.6,16.301 149.8,-67.199 164.5,-99.801 3.1,-6.898 9.5,-9.699 15,-6.5"
         style="fill:#ffffff;fill-opacity:1;fill-rule:nonzero;stroke:none"
         id="path310" /><path
         d="m 37777.5,544 v 0 c 6.6,3.902 8.9,14.699 5,23 -18.2,38.902 -74.8,133.602 -188.2,115 -6.6,-1.098 -11,-9.598 -9.8,-18.398 l 0.1,-0.301 c 1.1,-8.5 7.1,-14.098 13.4,-13.102 101.7,16.301 149.8,-67.199 164.6,-99.797 3.1,-6.902 9.5,-9.703 14.9,-6.402"
         style="fill:#ffffff;fill-opacity:1;fill-rule:nonzero;stroke:none"
         id="path312" /><path
         d="m 37690,510.602 v 0 c 6.5,3.898 8.8,14.699 4.9,23 -18.1,38.898 -74.8,133.597 -188.2,115 -6.5,-1.102 -10.9,-9.5 -9.7,-18.403 V 630 c 1.2,-8.598 7.1,-14.199 13.5,-13.199 101.6,16.301 149.8,-67.199 164.5,-99.801 3.2,-6.898 9.5,-9.699 15,-6.398"
         style="fill:#ffffff;fill-opacity:1;fill-rule:nonzero;stroke:none"
         id="path314" /><path
         d="m 38313.7,379.102 v 0 0 m 0.1,0.699 v 0 0 m 0,0.301 c 1.3,6.898 1.6,14.296 0.7,21.898 0.9,-7.602 0.6,-15 -0.7,-21.898 m 0.6,23.3 -23.6,182.098 v 0 l 23.6,-182.098"
         style="fill:#decbca;fill-opacity:1;fill-rule:nonzero;stroke:none"
         id="path316" /><path
         d="m 38273.3,337.102 c -0.1,0 -0.2,0 -0.2,0 v 0 l -242.8,1.699 c 64.2,210.301 174.1,247.398 243.8,247.398 5.8,0 11.4,-0.199 16.7,-0.699 l 23.6,-182.098 c 0,-0.402 0.1,-0.902 0.1,-1.402 0.9,-7.602 0.6,-15 -0.7,-21.898 0,-0.102 0,-0.2 0,-0.301 v 0 c -0.1,-0.301 -0.1,-0.5 -0.1,-0.699 v 0 c -4.7,-23.903 -20.7,-42 -40.4,-42"
         style="fill:#090730;fill-opacity:1;fill-rule:nonzero;stroke:none"
         id="path318" /><path
         d="m 36617.1,1372.7 27.7,-662.7 -332.8,-2.301 -31.7,624.201 336.8,40.8"
         style="fill:#ffc0bb;fill-opacity:1;fill-rule:nonzero;stroke:none"
         id="path320" /><path
         d="m 35768.5,282.199 956.4,-6.5 c 20.9,-0.097 37.7,16.301 37.5,36.801 l -0.2,27.602 c -0.2,20.5 -17.3,37.199 -38.2,37.3 l -956.4,6.5 c -20.9,0.2 -37.7,-16.3 -37.5,-36.8 l 0.2,-27.602 c 0.2,-20.5 17.3,-37.199 38.2,-37.301"
         style="fill:#ffffff;fill-opacity:1;fill-rule:nonzero;stroke:none"
         id="path322" /><path
         d="m 36711.9,686.602 36.7,-283.2 c 4.5,-34.902 -15.2,-66.504 -41.3,-66.3 l -909.5,6.199 c -23.7,0.101 -47.2,14.699 -59.8,42 -13,27.898 -15.9,69.801 24.4,125.898 80.4,112.203 347.7,137.903 477.7,233.301 l 423.7,-2.898 c 23.6,-0.102 44,-23.403 48.1,-55"
         style="fill:#09083c;fill-opacity:1;fill-rule:nonzero;stroke:none"
         id="path324" /><path
         d="m 36305.9,579.699 v 0 c 6.5,4 8.8,14.801 4.9,23.102 -18.2,38.902 -74.8,133.601 -188.2,115 -6.6,-1.098 -10.9,-9.602 -9.8,-18.403 l 0.1,-0.296 c 1.1,-8.5 7.1,-14.102 13.4,-13.102 101.7,16.301 149.9,-67.199 164.6,-99.801 3.1,-6.898 9.5,-9.699 15,-6.5"
         style="fill:#ffffff;fill-opacity:1;fill-rule:nonzero;stroke:none"
         id="path326" /><path
         d="m 36211.7,544 v 0 c 6.6,3.902 8.9,14.699 5,23 -18.2,38.902 -74.9,133.602 -188.3,115 -6.5,-1.098 -10.9,-9.598 -9.7,-18.398 l 0.1,-0.301 c 1.1,-8.5 7.1,-14.098 13.4,-13.102 101.6,16.301 149.8,-67.199 164.6,-99.797 3.1,-6.902 9.5,-9.703 14.9,-6.402"
         style="fill:#ffffff;fill-opacity:1;fill-rule:nonzero;stroke:none"
         id="path328" /><path
         d="m 36124.2,510.602 v 0 c 6.5,3.898 8.8,14.699 4.9,23 -18.2,38.898 -74.8,133.597 -188.2,115 -6.6,-1.102 -10.9,-9.5 -9.7,-18.403 V 630 c 1.1,-8.598 7.1,-14.199 13.5,-13.199 101.6,16.301 149.8,-67.199 164.5,-99.801 3.1,-6.898 9.5,-9.699 15,-6.398"
         style="fill:#ffffff;fill-opacity:1;fill-rule:nonzero;stroke:none"
         id="path330" /><path
         d="m 36747.8,379.102 v 0 0 m 0.2,0.699 v 0 0 m 0,0.301 c 1.3,6.898 1.6,14.296 0.7,21.898 0.9,-7.602 0.6,-15 -0.7,-21.898 m 0.6,23.3 -23.6,182.098 v 0 l 23.6,-182.098"
         style="fill:#decbca;fill-opacity:1;fill-rule:nonzero;stroke:none"
         id="path332" /><path
         d="m 36707.5,337.102 c -0.1,0 -0.2,0 -0.2,0 v 0 l -242.8,1.699 c 64.2,210.301 174.1,247.398 243.7,247.398 5.9,0 11.5,-0.199 16.8,-0.699 l 23.6,-182.098 c 0,-0.402 0.1,-0.902 0.1,-1.402 0.9,-7.602 0.6,-15 -0.7,-21.898 0,-0.102 0,-0.2 0,-0.301 v 0 c -0.1,-0.301 -0.1,-0.5 -0.2,-0.699 v 0 c -4.6,-23.903 -20.6,-42 -40.3,-42"
         style="fill:#090730;fill-opacity:1;fill-rule:nonzero;stroke:none"
         id="path334" /><path
         d="m 37993.3,4989 c 0,0 -1655.2,-6 -1910.7,-338.7 -255.4,-332.8 -449.5,-2580.2 0,-3563.2 0,0 582.4,-20.5 715.3,61.4 0,0 -40.9,1658.8 -20.5,2099 20.5,440.3 327,501.7 367.9,542.7 40.8,41 848,1198.8 848,1198.8"
         style="fill:#09083c;fill-opacity:1;fill-rule:nonzero;stroke:none"
         id="path336" /><path
         d="m 38180.4,2577.5 c -14.9,138.4 -34.3,318.2 -55.2,521.6 -37.5,399.6 -84.7,639.1 -34.6,634.2 398.7,-38.6 1483.4,155.1 2124.1,280.3 389.8,76.2 612.9,501.5 439.6,859.6 -21.8,44.9 -48,84.5 -79.4,115.8 -299.2,298.8 -916.7,202.9 -916,244.7 -3494.7,-291.7 -2724.7,-891.7 -2397,-2963.3 1.9,-8.8 3.7,-17.8 5.5,-26.6 142.2,-685 276.4,-1248.8 276.4,-1248.8 0,0 510.9,-20.5 807.2,51.2 0.3,-3.2 -92.1,805.9 -170.6,1531.3"
         style="fill:#09083c;fill-opacity:1;fill-rule:nonzero;stroke:none"
         id="path338" /><path
         d="m 40336.1,7648.6 c -113.9,107.6 -383.8,132.2 -633.3,128.7 3.5,-1.5 5.6,-2.4 5.6,-2.4 -218.9,-243.7 -449.8,-28.6 -449.8,-28.6 -44.5,-5.3 -70.7,-9.2 -70.7,-9.2 0,0 -165.7,-78.7 -344.6,-301 -2.6,-3.1 -194.6,-208.5 -213.5,-452.5 -13.5,-173.9 209.5,-427.8 209.5,-527.2 0,-99.3 -102.8,-819.6 -102.8,-819.6 l 38.8,4.9 c 0,-2.2 0,-3.9 0,-4.9 0.3,-9 -79.5,-21.7 -181.1,-34.2 -4.5,-128.7 -6.8,-208.8 -6.8,-208.8 v -251.1 c 1329.9,-220.8 2126.4,-593.5 2126.4,-593.5 65.8,2593.8 -360,3082.6 -377.7,3099.4"
         style="fill:#ea426e;fill-opacity:1;fill-rule:nonzero;stroke:none"
         id="path340" /><path
         d="m 39923,7566.3 c -59.5,-59.4 -100.4,-134.8 -123,-215.8 -79.5,-284.9 -344.6,-1209.2 -456.4,-1272.2 -105.1,-59.2 -1183.6,-297.8 -1704.3,-385.8 0,0 38.2,-155.2 72.4,-309.7 h 2111.2 c 0,0 560.7,690.6 623.2,1417.6 55.7,647.4 -246.2,1042.1 -523.1,765.9"
         style="fill:#f76390;fill-opacity:1;fill-rule:nonzero;stroke:none"
         id="path342" /><path
         d="m 33457,7365.3 h 2516.5 L 36687,5620 h 1212.2 c 33.9,0 61.3,-27.5 61.3,-61.5 0,-33.9 -27.4,-61.5 -61.3,-61.5 h -3606 L 33457,7365.3"
         style="fill:#07085b;fill-opacity:1;fill-rule:nonzero;stroke:none"
         id="path344" /><path
         d="m 34704.8,6369.4 c 14.9,-74.4 79.5,-124.2 144.5,-111.1 65,13 105.6,83.8 90.7,158.2 -14.8,74.4 -79.5,124.2 -144.5,111.1 -64.9,-13 -105.6,-83.9 -90.7,-158.2"
         style="fill:#daeef7;fill-opacity:1;fill-rule:nonzero;stroke:none"
         id="path346" /><path
         d="m 39083.7,9340.7 c 0,0 675.9,-623.9 995.3,-694.9 0,0 42.5,483.7 38.4,500.3 -4.2,16.5 -404.9,397.4 -429.7,393.3 -24.8,-4.2 -751.9,-107.7 -751.9,-107.7 l -199.3,-492.6 347.2,401.6"
         style="fill:#333333;fill-opacity:1;fill-rule:nonzero;stroke:none"
         id="path348" /><path
         d="m 38700.3,9208.2 176.3,-500 c 0,0 355.5,251.6 492.4,500 136.9,248.4 -354.7,157.3 -354.7,157.3 l -314,-157.3"
         style="fill:#333333;fill-opacity:1;fill-rule:nonzero;stroke:none"
         id="path350" /><path
         d="m 39373.8,8117.3 c -91.5,0 -118.6,84.5 -118.6,84.5 18.3,16.1 39.4,21.2 58.7,21.2 32.7,0 60.2,-14.7 60.2,-14.7 31.9,24.3 66.2,29.8 90.9,29.8 20.7,0 34.7,-3.9 34.7,-3.9 0,0 4.2,-101 -104.5,-115.5 -7.5,-1 -14.6,-1.4 -21.4,-1.4"
         style="fill:#fda8a3;fill-opacity:1;fill-rule:nonzero;stroke:none"
         id="path352" /><path
         d="m 39554.4,8273.8 c -11.6,-10.9 -23.8,-21.1 -36.8,-30.1 -12.8,-9.3 -26.1,-17.7 -40,-25 -27.7,-14.6 -57.2,-25.6 -87.9,-30.4 -30.6,-4.9 -62,-3.3 -92.4,3.7 -30.3,7.5 -59.4,20.3 -87.1,36.1 12.5,-9.8 25.9,-18.7 40,-26.4 14.2,-7.8 29.3,-13.6 44.7,-18.6 15.5,-4.6 31.6,-7.7 47.9,-8.8 16.3,-1 32.7,-0.2 48.8,2.1 32.2,5.4 63.1,17.3 90.6,34.3 27.4,16.9 52.5,37.9 72.2,63.1"
         style="fill:#f99893;fill-opacity:1;fill-rule:nonzero;stroke:none"
         id="path354" /><path
         d="m 10710.8,6632.8 h -972.6 v -198.9 h 972.6 v 198.9"
         style="fill:#ffffff;fill-opacity:1;fill-rule:nonzero;stroke:none"
         id="path356" /><path
         d="m 12266.1,6632.8 h -972.6 v -198.9 h 972.6 v 198.9"
         style="fill:#ffffff;fill-opacity:1;fill-rule:nonzero;stroke:none"
         id="path358" /><path
         d="m 42943.8,12549.2 h -393.3 v 193.7 h 393.3 v -193.7"
         style="fill:#97cef7;fill-opacity:1;fill-rule:nonzero;stroke:none"
         id="path360" /><path
         d="m 43466.9,13011.5 h 427.004 v 193.75 H 43466.9 Z"
         style="fill:#429bf5;fill-opacity:1;fill-rule:nonzero;stroke:none"
         id="path362" /><path
         d="m 43411,11257.7 h -417.6 v 109.8 h 417.6 v -109.8"
         style="fill:#97cef7;fill-opacity:1;fill-rule:nonzero;stroke:none"
         id="path364" /><path
         d="m 46641.2,12886.8 h -393.3 v 124.7 h 393.3 v -124.7"
         style="fill:#97cef7;fill-opacity:1;fill-rule:nonzero;stroke:none"
         id="path366" /><path
         d="m 46641.2,11208 h -393.3 v 124.8 h 393.3 V 11208"
         style="fill:#97cef7;fill-opacity:1;fill-rule:nonzero;stroke:none"
         id="path368" /><path
         d="m 47108.4,12334.9 h -417.6 v 214.3 h 417.6 v -214.3"
         style="fill:#97cef7;fill-opacity:1;fill-rule:nonzero;stroke:none"
         id="path370" /><path
         d="m 47591.3,13108.4 h -427 v 136.5 h 427 v -136.5"
         style="fill:#ffffff;fill-opacity:1;fill-rule:nonzero;stroke:none"
         id="path372" /><path
         d="m 44527,5925.7 h 1689.4 v 418.402 H 44527 Z"
         style="fill:#87c2f7;fill-opacity:1;fill-rule:nonzero;stroke:none"
         id="path374" /><path
         d="m 44283.1,5497.7 v 428 H 46628 v -428 h -2344.9"
         style="fill:#142666;fill-opacity:1;fill-rule:nonzero;stroke:none"
         id="path376" /><path
         d="m 44283.1,6344.1 v 394.2 h 2086.5 v -394.2 h -2086.5"
         style="fill:#ffffff;fill-opacity:1;fill-rule:nonzero;stroke:none"
         id="path378" /><path
         d="m 46069.7,6344.1 v 394.2 h 124.5 v -394.2 h -124.5"
         style="fill:#97cef7;fill-opacity:1;fill-rule:nonzero;stroke:none"
         id="path380" /><path
         d="m 44394.4,6344.1 v 394.2 h 124.5 v -394.2 h -124.5"
         style="fill:#97cef7;fill-opacity:1;fill-rule:nonzero;stroke:none"
         id="path382" /><path
         d="m 46290.8,5497.7 v 428 h 136.2 v -428 h -136.2"
         style="fill:#ffffff;fill-opacity:1;fill-rule:nonzero;stroke:none"
         id="path384" /><path
         d="m 25630.5,13274.3 h -442.8 v 152.6 h 442.8 v -152.6"
         style="fill:#ffffff;fill-opacity:1;fill-rule:nonzero;stroke:none"
         id="path386" /><path
         d="m 26053.3,12247.7 h -263.7 v 727.1 h 263.7 v -727.1"
         style="fill:#97cef7;fill-opacity:1;fill-rule:nonzero;stroke:none"
         id="path388" /><path
         d="m 26700.2,13497.4 h -480.8 v 114.9 h 480.8 v -114.9"
         style="fill:#97cef7;fill-opacity:1;fill-rule:nonzero;stroke:none"
         id="path390" /><path
         d="m 26700.2,11477.6 h -480.8 v 150.6 h 480.8 v -150.6"
         style="fill:#97cef7;fill-opacity:1;fill-rule:nonzero;stroke:none"
         id="path392" /><path
         d="M 29938.5,3972.9 30197.3,275 h -129.4 l -409.7,3657.9 280.3,40"
         style="fill:#07085b;fill-opacity:1;fill-rule:nonzero;stroke:none"
         id="path394" /><path
         d="M 27220.9,3972.9 26962.2,275 h 129.3 l 409.7,3657.9 -280.3,40"
         style="fill:#07085b;fill-opacity:1;fill-rule:nonzero;stroke:none"
         id="path396" /><path
         d="m 31067.7,7973.5 c 0,0 -2068.3,61.3 -2202.1,51.7 -133.9,-9.5 -257.6,-439.9 -257.6,-439.9 0,0 -604.2,-2241.4 -592.1,-2303.1 12,-61.6 -563.7,-1506 -563.7,-1506 0,0 496.6,13.2 518.6,0 22,-13.2 1920.3,163 1946.7,180.6 26.4,17.6 123,347.9 127.4,365.5 4.4,17.6 149.4,1303.4 149.4,1303.4 l 74.8,709 c 0,0 285.6,608.3 290,610.2 4.4,1.9 268.1,534.7 285.6,561.1 17.6,26.5 290,321.5 298.8,347.9 8.8,26.4 -75.8,119.6 -75.8,119.6"
         style="fill:#57ace5;fill-opacity:1;fill-rule:nonzero;stroke:none"
         id="path398" /><path
         d="m 31067.6,7973.5 c -0.1,0 -0.2,0 -0.3,0 0.1,0 0.2,0 0.3,0 m -0.5,0 c -0.1,0 -0.1,0 -0.2,0 0.1,0 0.1,0 0.2,0 m -0.3,0 c 0,0 0,0 -0.1,0 0.1,0 0.1,0 0.1,0 m -0.1,0 c -0.1,0 -0.1,0 -0.2,0 0.1,0 0.1,0 0.2,0 m -0.2,0 c -0.1,0.1 -0.3,0.1 -0.4,0.1 0.1,0 0.3,0 0.4,-0.1 m -0.4,0.1 c -0.1,0 -0.1,0 -0.2,0 0.1,0 0.1,0 0.2,0 m -1.1,0 c -0.2,0 -0.4,0 -0.5,0 0.1,0 0.3,0 0.5,0 m -0.6,0 c -0.4,0 -0.8,0 -1.3,0 0.5,0 0.9,0 1.3,0 m -1.5,0.1 c -0.4,0 -0.9,0 -1.4,0 0.5,0 1,0 1.4,0 m -1.6,0 c -0.1,0 -0.2,0 -0.3,0 0.1,0 0.2,0 0.3,0 m -4.1,0.1 c -0.5,0 -1,0.1 -1.5,0.1 0.5,0 1,-0.1 1.5,-0.1 m -2.8,0.1 c -0.2,0 -0.4,0 -0.7,0 0.3,0 0.5,0 0.7,0 m -0.7,0 c -0.4,0 -0.7,0 -1.1,0.1 0.4,-0.1 0.7,-0.1 1.1,-0.1 m -1.4,0.1 c -0.2,0 -0.3,0 -0.5,0 0.2,0 0.3,0 0.5,0 m -1.5,0 c -0.1,0 -0.3,0 -0.4,0 0.1,0 0.3,0 0.4,0 m -0.7,0 c -0.1,0 -0.2,0 -0.3,0 0.1,0 0.2,0 0.3,0 m -1.4,0.1 c -0.7,0 -1.3,0 -2,0 0.7,0 1.3,0 2,0 m -2.5,0 c -0.4,0.1 -0.9,0.1 -1.4,0.1 0.5,0 1,0 1.4,-0.1 m -3.3,0.1 c -0.4,0.1 -0.8,0.1 -1.2,0.1 0.4,0 0.8,0 1.2,-0.1 m -2.8,0.1 c -0.1,0 -0.1,0 -0.1,0 h 0.1 m -0.6,0 c -0.2,0 -0.4,0.1 -0.6,0.1 0.2,0 0.4,-0.1 0.6,-0.1 m -1.2,0.1 c -0.1,0 -0.1,0 -0.1,0 0,0 0,0 0.1,0 m -7.7,0.2 c -0.2,0 -0.4,0 -0.6,0 0.2,0 0.4,0 0.6,0 m -3.4,0.1 c -0.3,0 -0.6,0 -1,0 0.3,0 0.7,0 1,0 m -2.2,0.1 c -1.2,0 -2.5,0 -3.7,0.1 1.2,-0.1 2.5,-0.1 3.7,-0.1 m -4.4,0.1 c -0.4,0 -0.8,0 -1.2,0 0.4,0 0.8,0 1.2,0 m -2.8,0.1 c -0.5,0 -1,0 -1.5,0 0.5,0 1,0 1.5,0 m -1.8,0 c -0.7,0.1 -1.5,0.1 -2.2,0.1 0.7,0 1.5,0 2.2,-0.1 m -2.5,0.1 c -0.7,0 -1.5,0.1 -2.3,0.1 0.8,0 1.6,-0.1 2.3,-0.1 m -2.5,0.1 c -1.6,0 -3.3,0.1 -4.9,0.1 1.6,0 3.3,-0.1 4.9,-0.1 m -5.1,0.1 c -0.7,0 -1.5,0.1 -2.2,0.1 0.7,0 1.5,0 2.2,-0.1 m -4.1,0.1 c -0.3,0.1 -0.6,0.1 -0.9,0.1 0.3,0 0.6,0 0.9,-0.1 m -1.5,0.1 c -0.7,0 -1.4,0 -2.1,0.1 0.7,-0.1 1.4,-0.1 2.1,-0.1 m -2.9,0.1 c -0.3,0 -0.6,0 -0.9,0 0.3,0 0.6,0 0.9,0 m -1.5,0 c -0.1,0 -0.2,0 -0.3,0 0.1,0 0.2,0 0.3,0 m -1.4,0.1 c -0.2,0 -0.5,0 -0.7,0 0.2,0 0.5,0 0.7,0 m -2.6,0 c -1.9,0.1 -3.7,0.1 -5.5,0.2 1.8,-0.1 3.6,-0.1 5.5,-0.2 m -6,0.2 c -0.3,0 -0.6,0 -1,0 0.4,0 0.7,0 1,0 m -1.4,0.1 c -0.5,0 -1.1,0 -1.6,0 0.5,0 1.1,0 1.6,0 m -3,0 c -0.3,0 -0.5,0.1 -0.8,0.1 0.3,0 0.5,-0.1 0.8,-0.1 m -5.1,0.2 c -0.2,0 -0.4,0 -0.6,0 0.2,0 0.4,0 0.6,0 m -4.6,0.1 c -0.3,0 -0.6,0 -0.9,0.1 0.3,-0.1 0.6,-0.1 0.9,-0.1 m -8.6,0.3 c -0.1,0 -0.1,0 -0.2,0 0.1,0 0.1,0 0.2,0 m -18.7,0.5 c -0.3,0 -0.7,0 -1,0 0.3,0 0.7,0 1,0 m -18.3,0.6 c -0.4,0 -0.8,0 -1.1,0 0.3,0 0.7,0 1.1,0 m -2.8,0 c -0.2,0 -0.4,0 -0.7,0.1 0.3,-0.1 0.5,-0.1 0.7,-0.1 m -1.1,0.1 c -0.6,0 -1.1,0 -1.6,0 0.5,0 1,0 1.6,0 m -2.1,0 c -0.5,0 -0.9,0 -1.3,0.1 0.4,-0.1 0.9,-0.1 1.3,-0.1 m -5.1,0.2 c -0.7,0 -1.4,0 -2.1,0 0.7,0 1.4,0 2.1,0 m -3.6,0.1 v 0 0 m -3.5,0.1 c -0.4,0 -0.9,0 -1.2,0 0.4,0 0.8,0 1.2,0 m -1.8,0 c -2.6,0.1 -5.1,0.2 -7.7,0.3 2.6,-0.1 5.1,-0.2 7.7,-0.3 m -16.9,0.5 c -0.4,0 -0.8,0 -1.1,0.1 0.3,-0.1 0.7,-0.1 1.1,-0.1 m -8.4,0.3 c -0.3,0 -0.7,0 -1,0 0.3,0 0.6,0 1,0 m -2.8,0 v 0 0 m -2.2,0.1 c -1.7,0.1 -3.5,0.1 -5.2,0.2 1.8,-0.1 3.5,-0.1 5.2,-0.2 m -8.2,0.2 c -0.4,0.1 -0.7,0.1 -1.1,0.1 0.4,0 0.7,0 1.1,-0.1 m -4.7,0.2 c -0.3,0 -0.6,0 -0.9,0 0.3,0 0.6,0 0.9,0 m -1.7,0 c -1.2,0.1 -2.3,0.1 -3.4,0.1 1.1,0 2.2,0 3.4,-0.1 m -5.2,0.2 c -0.2,0 -0.5,0 -0.7,0 0.2,0 0.5,0 0.7,0 m -1.8,0 c -0.5,0 -1.2,0.1 -1.8,0.1 0.6,0 1.2,-0.1 1.8,-0.1 m -3,0.1 v 0 0 m -4.4,0.1 c -1.2,0.1 -2.2,0.1 -3.4,0.1 1.1,0 2.3,0 3.4,-0.1 m -4.3,0.2 c -0.2,0 -0.5,0 -0.8,0 0.3,0 0.6,0 0.8,0 m -26.5,0.7 c -0.4,0 -0.7,0 -1,0.1 0.3,-0.1 0.7,-0.1 1,-0.1 m -27.9,0.8 c -0.2,0 -0.5,0 -0.7,0 0.2,0 0.5,0 0.7,0 m -1.4,0.1 c -1.6,0 -3.2,0.1 -4.8,0.1 1.6,0 3.2,-0.1 4.8,-0.1 m -5.2,0.1 c -0.7,0 -1.4,0.1 -2.1,0.1 0.7,0 1.4,-0.1 2.1,-0.1 m -5.2,0.2 c -0.4,0 -0.9,0 -1.4,0 0.5,0 1,0 1.4,0 m -3.2,0.1 c -0.4,0 -0.7,0 -1,0 0.3,0 0.6,0 1,0 m -5.4,0.1 c -0.4,0 -0.7,0 -1.1,0 0.3,0 0.7,0 1.1,0 m -1.8,0.1 c -0.4,0 -0.8,0 -1.3,0 0.5,0 0.9,0 1.3,0 m -24.8,0.7 c -0.1,0 -0.1,0 -0.2,0 0.1,0 0.2,0 0.2,0 m -2.8,0.1 h -0.1 c 0,0 0,0 0.1,0 m -4.5,0.1 c -0.1,0 -0.2,0 -0.2,0 0,0 0.1,0 0.2,0"
         style="fill:#b7d8f7;fill-opacity:1;fill-rule:nonzero;stroke:none"
         id="path400" /><path
         d="m 27483.3,3854.4 c 2.3,5.9 4.8,12 7.3,18.5 556,82.7 1315,100 1315,100 0,0 0.7,0 2.1,0.1 -125.6,-13.9 -266,-28.4 -423.3,-43.3 -331.4,-31.5 -656.7,-57.3 -901.1,-75.3 m 1718.5,166.8 v 13 c 263.8,69.2 556.5,215.1 523.7,521 5.7,225.7 8.1,436.7 7.5,634.1 h 235.3 c -9.8,-118.3 -17.8,-230.6 -25.2,-334.8 -16.2,-228.7 -35.6,-502 -68.6,-633.8 -10.8,-42.8 -43.1,-77 -85.2,-90.2 -76.9,-24.1 -240.8,-62.1 -587.5,-109.3 m 796.9,1485.2 h -244.1 c 142.2,459.8 202.2,875.1 258.1,1268.2 99.6,700.8 -34.6,1094.7 -273.9,1235.5 349.7,-8.8 730.9,-19.4 994.9,-26.9 0,0 0.1,0 0.2,0 1.4,-0.1 2.9,-0.1 4.4,-0.1 h 0.1 c 0.9,-0.1 1.7,-0.1 2.6,-0.1 0.1,0 0.1,0 0.2,0 8,-0.3 15.8,-0.5 23.5,-0.7 0.5,0 0.9,0 1.3,0 0.2,0 0.5,0 0.7,-0.1 0.4,0 0.7,0 1.1,0 1.5,0 2.9,-0.1 4.4,-0.1 0.3,0 0.6,0 1,0 0.6,-0.1 1.2,-0.1 1.8,-0.1 0.5,0 1,0 1.4,0 1.1,-0.1 2.1,-0.1 3.1,-0.1 0.7,0 1.4,-0.1 2.1,-0.1 0.1,0 0.3,0 0.4,0 1.6,0 3.2,-0.1 4.8,-0.1 0.2,0 0.5,0 0.7,-0.1 0.2,0 0.5,0 0.7,0 9.1,-0.2 18.1,-0.5 26.9,-0.7 0.3,-0.1 0.6,-0.1 1,-0.1 8.8,-0.2 17.3,-0.5 25.7,-0.7 0.3,0 0.6,0 0.8,0 0.3,0 0.6,-0.1 0.9,-0.1 1.2,0 2.2,0 3.4,-0.1 1.4,0 2.9,0 4.4,-0.1 v 0 c 0.4,0 0.8,0 1.2,0 0.6,0 1.3,-0.1 1.8,-0.1 0.4,0 0.8,0 1.1,0 0.2,0 0.5,0 0.7,0 0.6,0 1.2,-0.1 1.8,-0.1 1.1,0 2.2,0 3.4,-0.1 0.2,0 0.6,0 0.8,0 0.3,0 0.6,0 0.9,0 1.2,-0.1 2.4,-0.1 3.6,-0.1 0.4,0 0.7,0 1.1,-0.1 1,0 2,0 3,0 1.7,-0.1 3.5,-0.1 5.2,-0.2 0.8,0 1.4,0 2.2,-0.1 v 0 c 0.6,0 1.2,0 1.8,0 0.3,0 0.7,0 1,0 2.4,-0.1 4.8,-0.2 7.3,-0.2 0.3,-0.1 0.7,-0.1 1.1,-0.1 3.1,-0.1 6.2,-0.2 9.2,-0.2 2.6,-0.1 5.1,-0.2 7.7,-0.3 0.2,0 0.4,0 0.6,0 0.3,0 0.8,0 1.2,0 1.2,-0.1 2.3,-0.1 3.5,-0.1 v 0 c 0.5,0 1,-0.1 1.5,-0.1 0.7,0 1.4,0 2.1,0 1.3,-0.1 2.6,-0.1 3.8,-0.1 0.4,-0.1 0.8,-0.1 1.3,-0.1 0.1,0 0.3,0 0.5,0 0.5,0 1,0 1.6,0 0.1,0 0.3,0 0.4,0 0.3,-0.1 0.5,-0.1 0.7,-0.1 0.6,0 1.1,0 1.7,0 0.3,0 0.7,0 1.1,0 5.9,-0.2 11.7,-0.4 17.3,-0.6 0.3,0 0.7,0 1,0 6.4,-0.2 12.6,-0.3 18.5,-0.5 0.1,0 0.1,0 0.2,0 2.6,-0.1 5.1,-0.2 7.7,-0.2 0.3,-0.1 0.6,-0.1 0.9,-0.1 1.3,0 2.7,-0.1 4,-0.1 0.2,0 0.4,0 0.6,0 1.4,-0.1 2.9,-0.1 4.3,-0.1 0.3,0 0.5,-0.1 0.8,-0.1 0.4,0 0.9,0 1.4,0 0.5,0 1.1,0 1.6,0 0.1,-0.1 0.3,-0.1 0.4,-0.1 0.4,0 0.7,0 1,0 0.2,0 0.3,0 0.5,0 1.8,-0.1 3.6,-0.1 5.5,-0.2 0.6,0 1.3,0 1.9,0 0.2,0 0.5,0 0.7,0 0.4,0 0.7,-0.1 1.1,-0.1 0.1,0 0.2,0 0.3,0 0.2,0 0.4,0 0.6,0 0.3,0 0.6,0 0.9,0 0.3,0 0.5,0 0.8,0 0.7,-0.1 1.4,-0.1 2.1,-0.1 0.2,0 0.4,0 0.6,0 0.3,0 0.6,0 0.9,-0.1 0.7,0 1.3,0 1.9,0 0.7,0 1.5,-0.1 2.2,-0.1 0.1,0 0.1,0 0.2,0 1.6,0 3.3,-0.1 4.9,-0.1 0.1,0 0.1,0 0.2,0 0.8,0 1.6,-0.1 2.3,-0.1 0.1,0 0.2,0 0.3,0 0.7,0 1.5,0 2.2,-0.1 0.1,0 0.2,0 0.3,0 0.5,0 1,0 1.5,0 0.5,0 1.1,-0.1 1.6,-0.1 0.4,0 0.8,0 1.2,0 0.2,0 0.4,0 0.7,0 1.2,-0.1 2.5,-0.1 3.7,-0.1 0.4,0 0.8,-0.1 1.2,-0.1 0.4,0 0.7,0 1,0 0.9,0 1.9,-0.1 2.8,-0.1 0.2,0 0.4,0 0.6,0 2.7,-0.1 5.2,-0.1 7.6,-0.2 0,0 0,0 0.1,0 0.2,0 0.4,0 0.6,0 0.2,0 0.4,-0.1 0.6,-0.1 0.2,0 0.3,0 0.5,0 0,0 0,0 0.1,0 0.5,0 1.1,0 1.6,0 0.4,0 0.8,0 1.2,-0.1 0.6,0 1.3,0 1.9,0 0.5,0 1,0 1.4,-0.1 0.2,0 0.3,0 0.5,0 0.7,0 1.3,0 2,0 0.4,0 0.8,0 1.1,-0.1 0.1,0 0.2,0 0.3,0 0.1,0 0.2,0 0.3,0 0.1,0 0.3,0 0.4,0 0.4,0 0.7,0 1,0 0.2,0 0.3,0 0.5,0 0.1,0 0.2,0 0.3,0 0.4,-0.1 0.7,-0.1 1.1,-0.1 v 0 c 0.3,0 0.5,0 0.7,0 0.4,0 0.8,0 1.3,0 0.5,0 1,-0.1 1.5,-0.1 1.4,0 2.7,-0.1 3.8,-0.1 0.1,0 0.2,0 0.3,0 0.1,0 0.1,0 0.2,0 0.5,0 1,0 1.4,0 0.1,0 0.2,-0.1 0.2,-0.1 0.5,0 0.9,0 1.3,0 h 0.1 c 0.1,0 0.3,0 0.5,0 0.3,0 0.6,0 0.9,0 0.1,0 0.1,0 0.2,0 v 0 c 0.1,0 0.3,0 0.4,-0.1 v 0 c 0.1,0 0.1,0 0.2,0 v 0 c 0.1,0 0.1,0 0.1,0 h 0.1 c 0.1,0 0.1,0 0.2,0 0.1,0 0.1,0 0.2,0 0.1,0 0.2,0 0.3,0 h 0.1 c 0,0 1,-1.1 2.8,-3.2 -26,-2.3 -51.5,-12.6 -72.7,-31.3 -692.6,-610.3 -908.4,-1610 -999.1,-2432.6"
         style="fill:#469bde;fill-opacity:1;fill-rule:nonzero;stroke:none"
         id="path402" /><path
         d="m 27074.4,3697.3 v 0.1 c -4.4,70.7 48.9,131.7 119.4,136.4 221,15 699,49.2 1190.6,95.9 942.3,89.4 1282.9,162.6 1404.9,200.8 42.1,13.2 74.4,47.4 85.2,90.2 33,131.8 52.4,405.1 68.6,633.8 61.6,867.8 163.1,2298.8 1054.7,3084.5 55.6,49.1 141.3,40.3 186.5,-18.5 41.1,-53.6 34.1,-130.2 -16.7,-174.8 -812.3,-713.2 -905.6,-2028.5 -968,-2909.4 -35.6,-502.2 -57.6,-748.7 -167.3,-863.4 -52.9,-55.3 -151.3,-158.2 -1584,-295.9 -508.3,-48.8 -1008.6,-84.7 -1237.1,-100.2 -71.1,-4.8 -132.4,49.2 -136.8,120.5"
         style="fill:#026eaf;fill-opacity:1;fill-rule:nonzero;stroke:none"
         id="path404" /><path
         d="m 25412.9,1405.3 -78.3,-630.198 -421.7,-32.801 6.5,584.399 493.5,78.6"
         style="fill:#ffc0bb;fill-opacity:1;fill-rule:nonzero;stroke:none"
         id="path406" /><path
         d="m 24272.1,281 1152.1,-7.801 c 25.2,-0.097 45.4,19.703 45.2,44.403 l -0.3,33.199 c -0.2,24.699 -20.8,44.801 -46,45 l -1152,7.801 c -25.2,0.097 -45.4,-19.7 -45.2,-44.399 l 0.3,-33.203 c 0.2,-24.699 20.8,-44.801 45.9,-45"
         style="fill:#ffffff;fill-opacity:1;fill-rule:nonzero;stroke:none"
         id="path408" /><path
         d="M 25408.5,768.199 25452.7,427 c 5.5,-42 -18.2,-80 -49.7,-79.801 l -1095.6,7.403 c -28.4,0.199 -56.7,17.8 -72,50.597 -15.6,33.602 -19.1,84.199 29.4,151.699 96.8,135.204 418.8,166.102 575.4,281.004 l 510.4,-3.504 c 28.5,-0.195 53,-28.199 57.9,-66.199"
         style="fill:#ea426e;fill-opacity:1;fill-rule:nonzero;stroke:none"
         id="path410" /><path
         d="m 24919.4,639.5 v 0 c 7.9,4.703 10.7,17.699 6,27.699 -21.9,46.801 -90.1,161 -226.7,138.5 -7.9,-1.301 -13.2,-11.496 -11.7,-22.097 v -0.403 c 1.4,-10.199 8.6,-17 16.2,-15.797 122.4,19.7 180.5,-80.902 198.2,-120.203 3.8,-8.297 11.5,-11.699 18,-7.699"
         style="fill:#ffffff;fill-opacity:1;fill-rule:nonzero;stroke:none"
         id="path412" /><path
         d="m 24806,596.301 v 0 c 7.9,4.801 10.7,17.801 6,27.801 -21.9,46.8 -90.1,161 -226.7,138.5 -7.9,-1.301 -13.2,-11.5 -11.7,-22.102 v -0.398 c 1.4,-10.2 8.6,-17 16.2,-15.801 122.4,19.699 180.5,-80.899 198.2,-120.199 3.8,-8.301 11.5,-11.7 18,-7.801"
         style="fill:#ffffff;fill-opacity:1;fill-rule:nonzero;stroke:none"
         id="path414" /><path
         d="m 24700.6,556.102 v 0 c 7.9,4.699 10.6,17.8 6,27.8 -21.9,46.797 -90.2,160.899 -226.8,138.5 -7.9,-1.3 -13.1,-11.5 -11.7,-22.101 v -0.399 c 1.4,-10.3 8.6,-17 16.3,-15.8 122.4,19.699 180.4,-80.903 198.2,-120.2 3.8,-8.402 11.4,-11.703 18,-7.8"
         style="fill:#ffffff;fill-opacity:1;fill-rule:nonzero;stroke:none"
         id="path416" /><path
         d="m 27359.2,6589.6 -69.6,-726.5 276.8,-52.9 152.4,288 -25,381.4 -215.3,149.9 -119.3,-39.9"
         style="fill:#f9b5b2;fill-opacity:1;fill-rule:nonzero;stroke:none"
         id="path418" /><path
         d="m 27640.2,7734.6 c 0,0 -281,-732.8 -281,-1145 0,0 147.3,-96.8 359.6,-70.4 212.3,26.4 33.9,863.1 41.8,885.1 7.9,22 -120.4,330.3 -120.4,330.3"
         style="fill:#f4a640;fill-opacity:1;fill-rule:nonzero;stroke:none"
         id="path420" /><path
         d="m 26060.3,1391.8 -186.4,-608.101 -429.2,-2.898 74.8,443.899 540.8,167.1"
         style="fill:#ffc0bb;fill-opacity:1;fill-rule:nonzero;stroke:none"
         id="path422" /><path
         d="m 28541.9,6061 -515.8,-779.5 -685.8,135.5 -1163.8,870 204.1,302.6 c 0,0 1090.5,-655 1183.3,-673.4 92.8,-18.3 345.8,574.1 345.8,574.1 l 632.2,-429.3"
         style="fill:#f9b5b2;fill-opacity:1;fill-rule:nonzero;stroke:none"
         id="path424" /><path
         d="m 24828.3,269.699 1152,-7.801 c 25.2,-0.097 45.4,19.704 45.2,44.403 l -0.3,33.199 c -0.2,24.703 -20.8,44.801 -46,45 l -1152,7.801 c -25.2,0.199 -45.4,-19.699 -45.2,-44.399 l 0.3,-33.203 c 0.2,-24.699 20.8,-44.797 46,-45"
         style="fill:#ffffff;fill-opacity:1;fill-rule:nonzero;stroke:none"
         id="path426" /><path
         d="m 25964.7,756.898 44.1,-341.097 c 5.5,-42.102 -18.2,-80.102 -49.7,-79.899 l -1095.6,7.399 c -28.4,0.199 -56.7,17.801 -71.9,50.601 -15.6,33.7 -19.2,84.2 29.3,151.797 96.9,135.102 418.9,166.004 575.5,280.903 l 510.3,-3.403 c 28.5,-0.199 53,-28.297 58,-66.301"
         style="fill:#f76390;fill-opacity:1;fill-rule:nonzero;stroke:none"
         id="path428" /><path
         d="m 25475.6,628.199 v 0 c 7.9,4.703 10.6,17.703 6,27.703 -21.9,46.899 -90.2,160.996 -226.8,138.598 -7.9,-1.301 -13.1,-11.598 -11.7,-22.199 V 772 c 1.4,-10.297 8.6,-17.098 16.3,-15.801 122.4,19.602 180.4,-81 198.2,-120.199 3.8,-8.398 11.4,-11.699 18,-7.801"
         style="fill:#ffffff;fill-opacity:1;fill-rule:nonzero;stroke:none"
         id="path430" /><path
         d="m 25362.2,585.102 v 0 c 7.9,4.699 10.6,17.699 6,27.699 -21.9,46.801 -90.2,161 -226.8,138.601 -7.9,-1.3 -13.1,-11.601 -11.7,-22.199 l 0.1,-0.301 c 1.3,-10.3 8.5,-17.101 16.2,-15.902 122.4,19.699 180.4,-80.898 198.2,-120.098 3.8,-8.402 11.4,-11.703 18,-7.8"
         style="fill:#ffffff;fill-opacity:1;fill-rule:nonzero;stroke:none"
         id="path432" /><path
         d="m 25256.7,544.902 v 0 c 7.9,4.7 10.7,17.7 6,27.7 -21.9,46.796 -90.1,161 -226.7,138.597 -7.9,-1.297 -13.2,-11.597 -11.8,-22.199 l 0.1,-0.301 c 1.4,-10.297 8.6,-17.097 16.2,-15.898 122.4,19.699 180.5,-80.903 198.2,-120.199 3.8,-8.301 11.5,-11.7 18,-7.7"
         style="fill:#ffffff;fill-opacity:1;fill-rule:nonzero;stroke:none"
         id="path434" /><path
         d="m 26008.8,415.801 -28.4,219.301 v 0 l 28.4,-219.301"
         style="fill:#decbca;fill-opacity:1;fill-rule:nonzero;stroke:none"
         id="path436" /><path
         d="m 25959.4,335.902 c -0.1,0 -0.2,0 -0.3,0 v 0 l -292.4,2 c 77.4,253.399 209.7,298.098 293.6,298.098 7.1,0 13.8,-0.301 20.1,-0.898 l 28.4,-219.301 c 0.6,-4 0.8,-7.899 0.8,-11.699 0.2,-37 -21.8,-68.2 -50.2,-68.2"
         style="fill:#f05472;fill-opacity:1;fill-rule:nonzero;stroke:none"
         id="path438" /><path
         d="m 29725.5,4555.2 c -58.6,546.1 -705.4,554.9 -705.4,554.9 l -347.9,30.2 -8.4,73.9 c 0,0 -2399.1,285.6 -2727.1,-802.6 -328,-1088.1 -576.9,-3241.7 -576.9,-3241.7 0,0 316.7,-192.701 746.5,0 0,0 608,2312.3 835.7,2539 227.6,226.7 1863.6,264 1863.6,264 0,0 978.5,36.3 919.9,582.3"
         style="fill:#09083c;fill-opacity:1;fill-rule:nonzero;stroke:none"
         id="path440" /><path
         d="m 27478.5,5515.2 c 0,0 56.6,1990.4 161.7,2219.4 105.1,229 477,273 477,273 0,0 969.4,144 1221.3,-94.1 18.8,-17.8 457.1,-599.5 387,-3358.3 0,0 -832.5,458 -2247,692.8 v 267.2"
         style="fill:#feb546;fill-opacity:1;fill-rule:nonzero;stroke:none"
         id="path442" /><path
         d="m 28670.9,8402.9 v -497 c 0,-27.6 -15.8,-52.8 -40.8,-64.5 -75.8,-35.6 -245.4,-94 -403.7,-1 -21.3,12.6 -33.9,36.1 -33.9,60.9 v 449 l 478.4,52.6"
         style="fill:#ffc0bb;fill-opacity:1;fill-rule:nonzero;stroke:none"
         id="path444" /><path
         d="m 28670.9,8021.1 v 266.2 l -478.4,-52.6 v -225.8 c 89.7,-27.3 256.8,-54.5 478.4,12.2"
         style="fill:#f99893;fill-opacity:1;fill-rule:nonzero;stroke:none"
         id="path446" /><path
         d="m 25110.8,5506.4 h -2665.9 v 369.9 h 2665.9 v -369.9"
         style="fill:#ffffff;fill-opacity:1;fill-rule:nonzero;stroke:none"
         id="path448" /><path
         d="m 22122.6,5876.3 h 2665.9 v 369.898 h -2665.9 z"
         style="fill:#70c0fd;fill-opacity:1;fill-rule:nonzero;stroke:none"
         id="path450" /><path
         d="m 27072.8,5159.7 c 0,0 -1792.2,56.7 -2199.4,-328.7 -407.2,-385.4 -134.1,-3286 -66.2,-3552 0,0 371.6,-177.1 665.7,-86.4 294.1,90.6 181,1360.1 181,1360.1 0,0 -33.9,1212.9 11.3,1382.9 45.3,170 667.4,294.7 667.4,294.7 0,0 961.4,668.7 904.9,668.7 -56.6,0 -164.7,260.7 -164.7,260.7"
         style="fill:#09083c;fill-opacity:1;fill-rule:nonzero;stroke:none"
         id="path452" /><path
         d="m 26595.1,6862.2 -286.6,792.2 c -10.9,30 -45.3,43.9 -73.9,29.8 l -542.4,-267.1 c -29.1,-14.4 -41.9,-49.2 -28.9,-79 l 469.2,-1077.2 c 14.3,-32.9 51.7,-48.8 85.2,-36.4 l 475.8,176.3 -98.4,461.4"
         style="fill:#07085b;fill-opacity:1;fill-rule:nonzero;stroke:none"
         id="path454" /><path
         d="m 26109.8,6805.5 c 0.2,2.1 0.5,4.2 1,6.2 13.4,51.6 28,57.9 37.8,57.8 -1.7,8.3 -1.7,16.2 0.6,23.2 24.3,73.7 52,6.9 52,6.9 68.7,-102.3 281.3,-194.2 281.3,-194.2 l 72.6,-15.8 c -3.6,12.2 40,172.6 40,172.6 0,0 151.6,-275.5 153.1,-278.7 4.8,-12.7 -75.2,-125.4 -108.8,-162.4 -33.4,-37.1 -99.1,-127 -103.3,-134.1 0,0 -157.5,100.2 -213.9,149.4 -65.6,54.3 -168.4,141.4 -208.7,186.8 -29.1,32.7 -30.2,65.2 -23.4,90.4 -17.3,34.9 0.2,68.6 19.7,91.9"
         style="fill:#ffc0bb;fill-opacity:1;fill-rule:nonzero;stroke:none"
         id="path456" /><path
         d="m 26110.8,6809.6 c 3,-20.7 11.4,-40.3 21.5,-58.6 10.1,-18.4 22.9,-35.1 37,-50.6 14.4,-15.2 30.1,-29.2 47.2,-41.1 8.4,-6.2 17.6,-11.3 26.3,-16.9 9.2,-4.9 18.4,-9.7 27.7,-14.1 -17,11.9 -33.9,23.5 -49.8,36.6 -15.8,12.9 -30.9,26.8 -44.8,41.6 -13.8,15 -26.5,31 -37.7,48.1 -11,17.2 -20.8,35.3 -27.4,55"
         style="fill:#f99893;fill-opacity:1;fill-rule:nonzero;stroke:none"
         id="path458" /><path
         d="m 26089.8,6713.6 c 4.6,-20.4 14.5,-39.2 25.9,-56.7 11.5,-17.5 25.7,-33.2 40.9,-47.6 15.6,-13.9 32.3,-26.7 50.4,-37.2 8.8,-5.5 18.3,-9.8 27.4,-14.8 9.6,-4.1 19.2,-8.1 28.8,-11.8 -17.8,10.5 -35.7,20.7 -52.5,32.5 -16.8,11.7 -32.9,24.3 -48,38 -14.9,13.8 -28.8,28.8 -41.3,44.9 -12.3,16.3 -23.5,33.6 -31.6,52.7"
         style="fill:#f99893;fill-opacity:1;fill-rule:nonzero;stroke:none"
         id="path460" /><path
         d="m 26148.6,6869.5 c 3,-20.7 11.4,-40.2 21.4,-58.5 10.1,-18.5 23,-35.2 37,-50.7 14.5,-15.2 30.2,-29.2 47.3,-41.1 8.4,-6.2 17.5,-11.3 26.2,-16.9 9.2,-4.9 18.5,-9.6 27.8,-14.1 -17,12 -34,23.5 -49.8,36.6 -15.8,13 -30.9,26.8 -44.8,41.7 -13.9,14.9 -26.5,31 -37.7,48 -11,17.2 -20.8,35.4 -27.4,55"
         style="fill:#f99893;fill-opacity:1;fill-rule:nonzero;stroke:none"
         id="path462" /><path
         d="m 28901.5,6061 -515.8,-779.5 -685.7,135.5 -1163.9,870 204.1,302.6 c 0,0 1090.5,-655 1183.3,-673.4 92.8,-18.3 345.8,574.1 345.8,574.1 l 632.2,-429.3"
         style="fill:#ffc0bb;fill-opacity:1;fill-rule:nonzero;stroke:none"
         id="path464" /><path
         d="m 29343.7,7383.2 c -56.3,-309.2 -204.3,-1025.2 -418.3,-1355.9 0,0 -517.3,37.9 -808.7,391.7 0,0 398.2,983.9 502.2,1185.5 83.5,162 486.3,643.8 685.5,165.8 50.8,-122.1 63.1,-256.9 39.3,-387.1"
         style="fill:#f4a640;fill-opacity:1;fill-rule:nonzero;stroke:none"
         id="path466" /><path
         d="m 22304.2,275 h -181.6 v 4973 h 181.6 V 275"
         style="fill:#183658;fill-opacity:1;fill-rule:nonzero;stroke:none"
         id="path468" /><path
         d="m 24018.1,275 h -181.7 v 4973 h 181.7 V 275"
         style="fill:#183658;fill-opacity:1;fill-rule:nonzero;stroke:none"
         id="path470" /><path
         d="m 29020.1,275 h 181.699 V 5248 H 29020.1 Z"
         style="fill:#183658;fill-opacity:1;fill-rule:nonzero;stroke:none"
         id="path472" /><path
         d="m 30734,275 h 181.602 V 5248 H 30734 Z"
         style="fill:#183658;fill-opacity:1;fill-rule:nonzero;stroke:none"
         id="path474" /><path
         d="m 31347,5189.3 h -9630.7 c -44.2,0 -80,35.9 -80,80 v 157.1 c 0,44.2 35.8,80 80,80 H 31347 c 44.2,0 80,-35.8 80,-80 v -157.1 c 0,-44.1 -35.8,-80 -80,-80"
         style="fill:#fee4cb;fill-opacity:1;fill-rule:nonzero;stroke:none"
         id="path476" /><path
         d="m 29094.5,8831.8 c 0,0 165.5,592.7 -155.6,832.6 -321.2,239.8 -673.1,231.3 -918.1,108 -244.9,-123.3 -408.8,-585.4 -313.5,-858.3 l 804.6,218.8 582.6,-301.1"
         style="fill:#07085b;fill-opacity:1;fill-rule:nonzero;stroke:none"
         id="path478" /><path
         d="m 27865.7,8838 c 29.6,-76.8 3.8,-158.2 -57.4,-181.8 -61.3,-23.7 -134.9,19.3 -164.4,96.1 -29.6,76.7 -3.8,158.1 57.4,181.8 61.3,23.7 134.9,-19.4 164.4,-96.1"
         style="fill:#f99893;fill-opacity:1;fill-rule:nonzero;stroke:none"
         id="path480" /><path
         d="m 27879.1,8392 c -18.3,33.3 -33.7,68.4 -45.8,105.1 -34.5,98.7 -50.9,203 -58,293.9 -1.5,19.5 -4.1,38.9 -7.1,58.2 -12.1,78.1 -10.3,160.6 9.6,245 63.8,271.8 302.8,472.9 581.1,488.3 374.8,20.6 678.5,-281.3 671.6,-647.4 40.1,21.4 84.8,25.6 123.8,7.3 74.7,-35.2 99.6,-139.5 55.8,-233.1 -43.9,-93.6 -140,-140.9 -214.7,-105.7 -10.4,4.8 -19.7,11.2 -28.1,18.5 -37.6,-310.9 -296.8,-546.4 -602.2,-535.5 -149.3,5.3 -283.4,68.7 -383.4,168.6 -6.7,5.9 -13.7,12.7 -21.1,20.6 -32.3,34.8 -59.1,74.2 -81.5,116.2"
         style="fill:#ffc0bb;fill-opacity:1;fill-rule:nonzero;stroke:none"
         id="path482" /><path
         d="m 28253.4,8956.2 c -4.2,-36.2 -7.4,-71.7 -12.1,-106.2 -5.1,-33.8 -11.8,-69.8 -27.3,-92.7 l -3.1,-3.6 c -1.1,-1.3 -1.4,-2 -3.7,-4.4 -3.6,-4.3 -7.8,-7.8 -10.7,-12.9 -6.3,-9.4 -11,-20.7 -12.2,-32.5 -2.8,-24 8.1,-46.6 22.8,-61 30.1,-29.9 71.7,-36 107.1,-30.3 -34.8,9.2 -67.7,24.2 -85.6,49 -8.2,12.2 -13.2,25.6 -10.1,37.5 1.2,5.9 3.7,11.5 7.6,16.7 1.5,2.8 4.5,4.9 6.6,7.5 l 5,5.7 5.6,6.6 c 13,18.5 18.2,37.8 21.9,56.6 3.4,18.9 4.6,37.4 4.4,55.9 -0.5,36.8 -5.3,73.1 -16.2,108.1"
         style="fill:#f99893;fill-opacity:1;fill-rule:nonzero;stroke:none"
         id="path484" /><path
         d="m 28459.4,8890.8 c -1.1,-30.6 22.8,-56.4 53.4,-57.5 30.6,-1.1 56.3,22.9 57.4,53.6 1.1,30.6 -22.9,56.3 -53.4,57.4 -30.6,1.1 -56.3,-22.8 -57.4,-53.5"
         style="fill:#333333;fill-opacity:1;fill-rule:nonzero;stroke:none"
         id="path486" /><path
         d="m 27982.6,8876.5 c -1.1,-30.6 22.8,-56.4 53.4,-57.5 30.6,-1 56.3,22.9 57.4,53.6 1.1,30.6 -22.8,56.4 -53.4,57.5 -30.6,1.1 -56.3,-22.9 -57.4,-53.6"
         style="fill:#333333;fill-opacity:1;fill-rule:nonzero;stroke:none"
         id="path488" /><path
         d="m 28400.4,9021.6 c 28.8,6.3 55.8,10.8 82.3,12.7 26.5,1.9 52.2,0.4 76.9,-4.7 24.5,-5.4 49.1,-12.8 72.2,-25.7 12.4,-5 22.9,-13.5 35.3,-20 11.9,-7.2 22.8,-16 36.2,-23.3 -5.9,13.4 -12.9,26.6 -21.4,39 -9.6,11.2 -18.6,23.8 -31,32.9 -22.7,20.5 -52.4,33.6 -82.9,40 -30.6,6.3 -62.7,4.4 -91.7,-4.6 -28.9,-9.1 -55.9,-24.1 -75.9,-46.3"
         style="fill:#07085b;fill-opacity:1;fill-rule:nonzero;stroke:none"
         id="path490" /><path
         d="m 28154.8,9014.2 c -20.7,21.6 -48.2,35.8 -77.4,44.1 -29.3,8.1 -61.3,9 -91.8,1.8 -30.3,-7.4 -59.5,-21.4 -81.6,-42.6 -12.1,-9.4 -20.7,-22.3 -29.9,-33.9 -8.2,-12.5 -14.8,-26 -20.3,-39.6 13.2,7.7 23.8,16.9 35.5,24.5 12.2,6.8 22.4,15.6 34.7,21 22.7,13.6 47,21.8 71.3,27.9 24.6,5.9 50.2,8.1 76.7,7 26.6,-1.1 53.7,-4.7 82.8,-10.2"
         style="fill:#07085b;fill-opacity:1;fill-rule:nonzero;stroke:none"
         id="path492" /><path
         d="m 29020.9,8926.9 c 37.8,30 65.7,26.4 65.7,26.4 l -8.1,194.4 -55,119.3 c 0,0 -221.7,324.3 -229.6,332.4 -8,8.2 -183.2,117.5 -194,123.2 -10.8,5.7 -264,-21.4 -264,-21.4 0,0 -438.5,109.9 -373.9,-125.2 64.6,-235.1 382.4,-370.7 399.5,-361.1 -50.3,54.3 -49.3,202.1 -49.3,202.1 218,-258.5 642.6,-459.7 708.7,-490.1"
         style="fill:#07085b;fill-opacity:1;fill-rule:nonzero;stroke:none"
         id="path494" /><path
         d="m 28097.5,8540.8 c 9.8,-70 72.2,-126.6 151.1,-131.7 78.9,-5.2 147.9,42.8 166.6,111 l -317.7,20.7"
         style="fill:#ffffff;fill-opacity:1;fill-rule:nonzero;stroke:none"
         id="path496" /><path
         d="m 31347,5189.3 h -2661.2 c -44.2,0 -80,35.9 -80,80 v 157.1 c 0,44.2 35.8,80 80,80 H 31347 c 44.2,0 80,-35.8 80,-80 v -157.1 c 0,-44.1 -35.8,-80 -80,-80"
         style="fill:#eebc9c;fill-opacity:1;fill-rule:nonzero;stroke:none"
         id="path498" /><path
         d="m 22249.2,5942.3 h 1261.2 v 246.602 h -1261.2 z"
         style="fill:#429bf5;fill-opacity:1;fill-rule:nonzero;stroke:none"
         id="path500" /><path
         d="m 24547.4,5506.4 h -136.2 v 369.9 h 136.2 v -369.9"
         style="fill:#c9eafd;fill-opacity:1;fill-rule:nonzero;stroke:none"
         id="path502" /><path
         d="M 54387.9,0 H 2752.03 c -74.56,0 -135,60.4023 -135,135 v 0.5 c 0,74.602 60.44,135 135,135 H 54387.9 c 74.5,0 135,-60.398 135,-135 V 135 c 0,-74.5977 -60.5,-135 -135,-135"
         style="fill:#70c0fd;fill-opacity:1;fill-rule:nonzero;stroke:none"
         id="path504" /><path
         d="M 33346.6,275 H 33165 v 4973 h 181.6 V 275"
         style="fill:#183658;fill-opacity:1;fill-rule:nonzero;stroke:none"
         id="path506" /><path
         d="m 35060.4,275 h -181.6 v 4973 h 181.6 V 275"
         style="fill:#183658;fill-opacity:1;fill-rule:nonzero;stroke:none"
         id="path508" /><path
         d="m 40062.5,275 h 181.699 V 5248 H 40062.5 Z"
         style="fill:#183658;fill-opacity:1;fill-rule:nonzero;stroke:none"
         id="path510" /><path
         d="m 41776.4,275 h 181.598 V 5248 H 41776.4 Z"
         style="fill:#183658;fill-opacity:1;fill-rule:nonzero;stroke:none"
         id="path512" /><path
         d="m 42389.4,5189.3 h -9630.8 c -44.1,0 -79.9,35.9 -79.9,80 v 157.1 c 0,44.2 35.8,80 79.9,80 h 9630.8 c 44.2,0 80,-35.8 80,-80 v -157.1 c 0,-44.1 -35.8,-80 -80,-80"
         style="fill:#fee4cb;fill-opacity:1;fill-rule:nonzero;stroke:none"
         id="path514" /><path
         d="m 42377.5,5189.3 h -2661.2 c -44.2,0 -80,35.9 -80,80 v 157.1 c 0,44.2 35.8,80 80,80 h 2661.2 c 44.2,0 80,-35.8 80,-80 v -157.1 c 0,-44.1 -35.8,-80 -80,-80"
         style="fill:#eebc9c;fill-opacity:1;fill-rule:nonzero;stroke:none"
         id="path516" /><path
         d="m 53438,5189.3 h -432.7 431.4 c 44.2,0 80,35.9 80,80 v 157.1 c 0,44.2 -35.8,80 -80,80 h 1.3 c 44.1,0 80,-35.8 80,-80 v -157.1 c 0,-44.1 -35.9,-80 -80,-80"
         style="fill:#d6c6c4;fill-opacity:1;fill-rule:nonzero;stroke:none"
         id="path518" /><path
         d="m 53436.7,5189.3 h -2659.9 c -44.2,0 -80,35.9 -80,80 v 157.1 c 0,44.2 35.8,80 80,80 h 2659.9 c 44.2,0 80,-35.8 80,-80 v -157.1 c 0,-44.1 -35.8,-80 -80,-80"
         style="fill:#eebc9c;fill-opacity:1;fill-rule:nonzero;stroke:none"
         id="path520" /></g></g></svg>
